
        <svg xmlns="http://www.w3.org/2000/svg" xmlns:xlink="http://www.w3.org/1999/xlink" version="1.1" width="2284.5091855416276" height="3184.0490797546013" viewBox="0 0 2284.5091855416276 3184.0490797546013">
			
			<g transform="scale(9.202453987730062) translate(10, 10)">
				<defs id="SvgjsDefs10369"/><g id="SvgjsG10370" featureKey="rootContainer" transform="matrix(1,0,0,1,0,0)" fill="#000"><path xmlns="http://www.w3.org/2000/svg" fill-rule="evenodd" d="M5,65 L114,0 L223, 65 L114, 10 z M5,246 L114,326 L223,241 L114, 316 z"/></g><g id="SvgjsG10371" featureKey="symbolFeature-0" transform="matrix(0.8626083876119854,0,0,0.8626083876119854,70.76773972734213,79.27001415461446)" fill="#000"><g xmlns="http://www.w3.org/2000/svg"><polygon points="23.52,53.793 14.409,69.574 23.52,85.355 41.743,85.355 50.855,69.574 41.743,53.793  "/><polygon points="41.743,46.207 50.855,30.426 41.743,14.645 23.52,14.645 14.409,30.426 23.52,46.207  "/><polygon points="76.48,34.704 58.257,34.704 49.145,50.484 58.257,66.266 76.48,66.266 85.592,50.484  "/><path d="M77.753,32.498h-20.77L46.599,50.484l10.385,17.987h20.77l10.385-17.987L77.753,32.498z M76.48,66.266H58.257   l-9.112-15.781l9.112-15.781H76.48l9.111,15.781L76.48,66.266z"/><path d="M22.247,51.588L11.862,69.574l10.385,17.986h20.769l10.385-17.986L43.016,51.588H22.247z M41.743,85.355H23.52   l-9.111-15.781l9.111-15.781h18.223l9.112,15.781L41.743,85.355z"/><path d="M43.016,48.413l10.385-17.986L43.016,12.439H22.247L11.862,30.426l10.385,17.986H43.016z M23.52,14.645h18.223   l9.112,15.781l-9.112,15.781H23.52l-9.111-15.781L23.52,14.645z"/></g></g><g id="SvgjsG10372" featureKey="sloganFeature-0" transform="matrix(1.0084034475463053,0,0,1.0084034475463053,41.092436801039476,215.19159591132805)" fill="#000"><path d="M12.58 18.5 c-1.3 1.08 -2.9 1.7 -4.62 1.7 c-3.44 0 -7.06 -2.98 -7.06 -7.2 s3.62 -7.2 7.06 -7.2 c1.7 0 3.28 0.6 4.58 1.66 l-0.4 0.46 c-1.18 -1 -2.64 -1.52 -4.12 -1.52 c-3.16 0 -6.54 2.68 -6.54 6.6 s3.38 6.6 6.54 6.6 c1.48 0 2.96 -0.52 4.12 -1.5 z M13.34 19.42 l6.94 0 l0 0.58 l-7.52 0 l0 -14 l0.58 0 l0 13.42 z M26.080000000000002 5.800000000000001 c3.44 0 7.08 2.98 7.08 7.2 s-3.64 7.2 -7.08 7.2 s-7.06 -2.98 -7.06 -7.2 s3.62 -7.2 7.06 -7.2 z M26.080000000000002 19.6 c3.1 0 6.5 -2.68 6.5 -6.6 s-3.4 -6.6 -6.5 -6.6 c-3.08 0 -6.48 2.68 -6.48 6.6 s3.4 6.6 6.48 6.6 z M42.540000000000006 6 l0.58 0 l0 8.92 c0 3.48 -2.04 5.38 -4.8 5.38 c-2.74 0 -4.78 -1.9 -4.78 -5.38 l0 -8.92 l0.58 0 l0 8.9 c0 3.1 1.74 4.8 4.2 4.8 c2.48 0 4.22 -1.7 4.22 -4.8 l0 -8.9 z M47.24 6 c4.18 0 7.06 3.08 7.06 7.06 c0 3.86 -2.88 6.94 -7.06 6.94 l-3.44 0 l0 -14 l3.44 0 z M47.22 19.44 c3.9 0 6.5 -2.82 6.5 -6.38 c0 -3.68 -2.6 -6.5 -6.5 -6.5 l-2.84 0 l0 12.88 l2.84 0 z M62.900000000000006 5.76 c1.96 0 3.58 1.34 4.08 2.98 l-0.48 0.18 c-0.56 -1.48 -1.82 -2.6 -3.6 -2.6 c-2 0 -3.36 1.16 -3.36 2.74 c0 1.42 0.96 2.4 2.84 3.14 l1.06 0.4 c2.02 0.82 3.9 1.64 3.9 4.12 c0 2.04 -1.98 3.58 -4.34 3.58 c-2.24 0 -4.2 -1.38 -4.64 -3.42 l0.56 -0.18 c0.48 1.88 2.1 3.04 4.08 3.04 s3.76 -1.26 3.76 -3.04 c0 -2.1 -1.58 -2.84 -3.34 -3.52 l-1.2 -0.48 c-2.18 -0.86 -3.26 -2.02 -3.26 -3.62 c0 -1.86 1.54 -3.32 3.94 -3.32 z M74.18 5.800000000000001 c3.44 0 7.08 2.98 7.08 7.2 s-3.64 7.2 -7.08 7.2 s-7.06 -2.98 -7.06 -7.2 s3.62 -7.2 7.06 -7.2 z M74.18 19.6 c3.1 0 6.5 -2.68 6.5 -6.6 s-3.4 -6.6 -6.5 -6.6 c-3.08 0 -6.48 2.68 -6.48 6.6 s3.4 6.6 6.48 6.6 z M82.22000000000001 19.42 l6.94 0 l0 0.58 l-7.52 0 l0 -14 l0.58 0 l0 13.42 z M98.04 6 l0.58 0 l0 8.92 c0 3.48 -2.04 5.38 -4.8 5.38 c-2.74 0 -4.78 -1.9 -4.78 -5.38 l0 -8.92 l0.58 0 l0 8.9 c0 3.1 1.74 4.8 4.2 4.8 c2.48 0 4.22 -1.7 4.22 -4.8 l0 -8.9 z M107.94000000000001 6 l0 0.58 l-4.22 0 l0 13.42 l-0.58 0 l0 -13.42 l-4.24 0 l0 -0.58 l9.04 0 z M108.80000000000001 6 l0 14 l-0.58 0 l0 -14 l0.58 0 z M116.24000000000001 5.800000000000001 c3.44 0 7.08 2.98 7.08 7.2 s-3.64 7.2 -7.08 7.2 s-7.06 -2.98 -7.06 -7.2 s3.62 -7.2 7.06 -7.2 z M116.24000000000001 19.6 c3.1 0 6.5 -2.68 6.5 -6.6 s-3.4 -6.6 -6.5 -6.6 c-3.08 0 -6.48 2.68 -6.48 6.6 s3.4 6.6 6.48 6.6 z M133.96 6 l0.58 0 l0 14 l-0.44 0 l-9.82 -12.9 l0 12.9 l-0.58 0 l0 -14 l0.44 0 l9.82 12.94 l0 -12.94 z M139.26000000000002 5.76 c1.96 0 3.58 1.34 4.08 2.98 l-0.48 0.18 c-0.56 -1.48 -1.82 -2.6 -3.6 -2.6 c-2 0 -3.36 1.16 -3.36 2.74 c0 1.42 0.96 2.4 2.84 3.14 l1.06 0.4 c2.02 0.82 3.9 1.64 3.9 4.12 c0 2.04 -1.98 3.58 -4.34 3.58 c-2.24 0 -4.2 -1.38 -4.64 -3.42 l0.56 -0.18 c0.48 1.88 2.1 3.04 4.08 3.04 s3.76 -1.26 3.76 -3.04 c0 -2.1 -1.58 -2.84 -3.34 -3.52 l-1.2 -0.48 c-2.18 -0.86 -3.26 -2.02 -3.26 -3.62 c0 -1.86 1.54 -3.32 3.94 -3.32 z"/></g><g id="SvgjsG10373" featureKey="nameLeftFeature-0" transform="matrix(2.5714285714285716,0,0,2.5714285714285716,-3.0857144083295553,159.57142857142856)" fill="#000"><path d="M1.78 6 l0 14 l-0.58 0 l0 -14 l0.58 0 z M15.6 6 l0.62 0 l-6.28 14 l-0.3 0 l-6.26 -14 l0.62 0 l5.8 13 z M32.04 6 l0 14 l-0.58 0 l0 -12.7 l-6.34 12.7 l-0.38 0 l-6.34 -12.72 l0 12.72 l-0.58 0 l0 -14 l0.58 0 l6.54 13.1 l6.52 -13.1 l0.58 0 z"/></g><g id="SvgjsG10374" featureKey="nameRightFeature-0" transform="matrix(2.4999999006589295,0,0,2.4999999006589295,85.00000099341071,160.50000009934107)" fill="#000"><path d="M12.38 20 l-1.06 -2.5 l-6.76 0 l-1.06 2.5 l-3.1 0 l6.22 -14 l2.64 0 l6.24 14 l-3.12 0 z M5.58 15.120000000000001 l4.72 0 l-2.36 -5.54 z M26.259999999999998 6 l2.92 0 l0 14 l-2.22 0 l-6.94 -8.68 l0 8.68 l-2.92 0 l0 -14 l2.26 0 l6.9 8.7 l0 -8.7 z M41.08 6 l0 2.68 l-3.48 0 l0 11.32 l-2.92 0 l0 -11.32 l-3.5 0 l0 -2.68 l9.9 0 z M50.040000000000006 5.800000000000001 c3.9 0 7.26 2.94 7.26 7.2 s-3.36 7.2 -7.26 7.2 s-7.26 -2.94 -7.26 -7.2 s3.36 -7.2 7.26 -7.2 z M50.040000000000006 17.46 c2.36 0 4.22 -1.86 4.22 -4.46 s-1.86 -4.46 -4.22 -4.46 s-4.22 1.86 -4.22 4.46 s1.86 4.46 4.22 4.46 z"/></g>
			</g>
		</svg>
	