<svg version="1.1" viewBox="0.0 0.0 720.0 280.0" fill="none" stroke="none" stroke-linecap="square" stroke-miterlimit="10" xmlns:xlink="http://www.w3.org/1999/xlink" xmlns="http://www.w3.org/2000/svg"><clipPath id="p.0"><path d="m0 0l720.0 0l0 280.0l-720.0 0l0 -280.0z" clip-rule="nonzero"/></clipPath><g clip-path="url(#p.0)"><path fill="#000000" fill-opacity="0.0" d="m0 0l720.0 0l0 280.0l-720.0 0z" fill-rule="evenodd"/><path fill="#efefef" d="m90.253044 52.280376c12.792564 0 22.352608 0.6686592 28.6801 2.0059586c6.361908 1.2955246 12.586235 3.761177 18.673027 7.3969803c11.967239 7.3969765 20.701935 17.656635 26.204117 30.77895c5.53656 13.0805435 8.304855 28.835678 8.304855 47.26544c0 18.55513 -2.5275726 34.143097 -7.5826874 46.763947c-5.05513 12.579041 -12.998901 22.629745 -23.831314 30.152084c-6.2931213 4.1372986 -12.740982 6.9999695 -19.343597 8.588028c-6.6026154 1.5462494 -16.97078 2.3193817 -31.1045 2.3193817l-15.010628 0l0 -175.27077zm-74.43416 -52.28034l0 280.01953l81.2431 0c18.363518 0 34.25106 -1.6298523 47.66262 -4.8895264c13.41156 -3.2597046 25.739883 -9.026825 36.984955 -17.301422c14.959045 -11.032776 27.338943 -26.850616 37.13971 -47.45349c9.800751 -20.644684 14.701126 -44.005768 14.701126 -70.08324c0 -27.080467 -4.5736847 -50.608704 -13.721054 -70.58473c-9.112991 -20.017803 -21.61325 -35.919216 -37.500793 -47.70424c-9.284927 -7.0208616 -20.736328 -12.432777 -34.354218 -16.23574c-13.617889 -3.84476 -29.814934 -5.767136 -48.591118 -5.767136z" fill-rule="evenodd"/><path fill="#efefef" d="m278.89178 3.7420392E-5l0 280.01953l166.66443 0l0 -54.160934l-107.550385 0l0 -69.20563l99.81293 0l0 -54.160934l-99.81293 0l0 -48.3311l107.550385 0l0 -54.160927z" fill-rule="evenodd"/><path fill="#efefef" d="m469.69702 3.7420392E-5l84.028564 280.01953l66.54199 0l84.028564 -280.01953l-60.816284 0l-55.709534 196.70949l-55.709534 -196.70949z" fill-rule="evenodd"/><path stroke="#b7b7b7" stroke-width="1.0" stroke-linejoin="round" stroke-linecap="butt" d="m90.253044 52.280376c12.792564 0 22.352608 0.6686592 28.6801 2.0059586c6.361908 1.2955246 12.586235 3.761177 18.673027 7.3969803c11.967239 7.3969765 20.701935 17.656635 26.204117 30.77895c5.53656 13.0805435 8.304855 28.835678 8.304855 47.26544c0 18.55513 -2.5275726 34.143097 -7.5826874 46.763947c-5.05513 12.579041 -12.998901 22.629745 -23.831314 30.152084c-6.2931213 4.1372986 -12.740982 6.9999695 -19.343597 8.588028c-6.6026154 1.5462494 -16.97078 2.3193817 -31.1045 2.3193817l-15.010628 0l0 -175.27077zm-74.43416 -52.28034l0 280.01953l81.2431 0c18.363518 0 34.25106 -1.6298523 47.66262 -4.8895264c13.41156 -3.2597046 25.739883 -9.026825 36.984955 -17.301422c14.959045 -11.032776 27.338943 -26.850616 37.13971 -47.45349c9.800751 -20.644684 14.701126 -44.005768 14.701126 -70.08324c0 -27.080467 -4.5736847 -50.608704 -13.721054 -70.58473c-9.112991 -20.017803 -21.61325 -35.919216 -37.500793 -47.70424c-9.284927 -7.0208616 -20.736328 -12.432777 -34.354218 -16.23574c-13.617889 -3.84476 -29.814934 -5.767136 -48.591118 -5.767136z" fill-rule="evenodd"/><path stroke="#b7b7b7" stroke-width="1.0" stroke-linejoin="round" stroke-linecap="butt" d="m278.89178 3.7420392E-5l0 280.01953l166.66443 0l0 -54.160934l-107.550385 0l0 -69.20563l99.81293 0l0 -54.160934l-99.81293 0l0 -48.3311l107.550385 0l0 -54.160927z" fill-rule="evenodd"/><path stroke="#b7b7b7" stroke-width="1.0" stroke-linejoin="round" stroke-linecap="butt" d="m469.69702 3.7420392E-5l84.028564 280.01953l66.54199 0l84.028564 -280.01953l-60.816284 0l-55.709534 196.70949l-55.709534 -196.70949z" fill-rule="evenodd"/><path fill="#02c39a" d="m123.99292 106.08217c-1.584938 0 -2.932129 0.18226624 -4.041588 0.5467911c-1.1094513 0.36452484 -2.113243 0.78372955 -3.0113754 1.2576065c-0.8981323 0.47388458 -1.769844 1.0024414 -2.6151428 1.5856857c-0.84529877 0.5832367 -1.7434311 1.0935669 -2.6943893 1.5309982c0.2113266 1.2393799 -0.07924652 2.4240875 -0.87171936 3.5541153c-0.7924652 1.1300201 -1.4528503 1.9866562 -1.981163 2.569893c-0.5283127 0.7290497 -0.7132263 1.3487396 -0.5547333 1.8590775c0.15849304 0.5103302 0.07924652 1.166481 -0.23773956 1.9684296c-0.105659485 0.36452484 -0.42264557 0.6014633 -0.95095825 0.71082306c-0.5283127 0.10935974 -0.84529877 0.30984497 -0.95095825 0.6014633c-0.2113266 0.5103378 -0.13208008 1.0571213 0.23773956 1.6403656c0.369812 0.5832367 0.44905853 1.2029266 0.23773956 1.8590698c-0.84529877 2.9890976 -1.9811707 5.868843 -3.4076157 8.639229c-1.4264374 2.7703857 -2.5094757 5.6865845 -3.249115 8.748581c-0.2113266 1.0935822 -0.34339905 2.2418365 -0.3962326 3.4447632c-0.052833557 1.2029266 -0.105667114 2.3876343 -0.15849304 3.5541077c-0.052833557 1.1664734 -0.15849304 2.3147278 -0.31698608 3.4447632c-0.15849304 1.1300201 -0.5018997 2.1324615 -1.0302124 3.0073242c0.4226532 1.2393799 0.9245453 2.661026 1.5056915 4.2649384c0.5811386 1.6038971 1.2415314 3.2260284 1.9811707 4.866394c0.73963165 1.6403656 1.5321045 3.2260437 2.3774033 4.7570496c0.84529877 1.5309906 1.796257 2.806839 2.8528824 3.8274994c1.4264374 0.16403198 2.9123154 0.24604797 4.4576263 0.24604797c0.5151062 0 1.0368118 -0.009109497 1.5651245 -0.027328491c2.1132507 -0.072906494 3.9887543 -0.4192047 5.626526 -1.0388947c1.637764 -0.61968994 2.9057083 -1.5492249 3.8038406 -2.78862c0.8981323 -1.2393799 1.0830383 -2.9526367 0.55472565 -5.139786c-0.95095825 -3.572342 -1.2943649 -7.1082306 -1.0302048 -10.607666c0.26415253 -3.4994354 0.9245453 -6.9806366 1.9811707 -10.443619c1.0566177 -3.4629822 2.4038162 -6.9077454 4.04158 -10.334274c1.6377716 -3.426529 3.407608 -6.8895035 5.30954 -10.388939c-0.8453064 -0.21871185 -1.4528656 -0.6743698 -1.8226776 -1.3669662c-0.36982727 -0.69259644 -0.6075592 -1.4580994 -0.7132263 -2.2965012c-0.105651855 -0.8384094 -0.15849304 -1.6950455 -0.15849304 -2.5699005c0 -0.87485504 0 -1.6039047 0 -2.187149c-1.2679443 -0.4374237 -2.1660767 -1.0388947 -2.6943893 -1.80439c-0.5283127 -0.7655029 -0.9245453 -1.5856857 -1.1886978 -2.4605408c-0.26416016 -0.8748627 -0.5283127 -1.7497177 -0.7924652 -2.6245804c-0.26416016 -0.87485504 -0.8188858 -1.6768112 -1.6641846 -2.405861z" fill-rule="evenodd"/><path fill="#02c39a" d="m535.3352 113.1894l0 0c0 0 0 0 0 0l0 0c0 0 0 0 0 0zm-136.19751 16.623314c0.95095825 2.3329468 1.8490906 4.684128 2.694397 7.053543c0.8453064 2.3694153 1.6377563 4.64769 2.377411 6.834839c-3.1698914 0.4374237 -6.0491943 0.7472687 -8.637909 0.9295349c-2.588745 0.18225098 -5.4680176 0.34629822 -8.637909 0.49209595c-0.5282898 0.072906494 -1.0830383 0.10935974 -1.6641846 0.10935974c-0.58114624 0 -1.1886902 0.036453247 -1.8226624 0.10935974c0.5283203 -0.6561432 1.1094666 -1.3122864 1.7434387 -1.9684296c0.63397217 -0.6561432 1.2679443 -1.3122864 1.9019165 -1.9684296c1.3735962 -1.6768188 3.0377808 -3.4629822 4.9925537 -5.3585052c1.9547424 -1.8955383 3.988739 -3.6087952 6.1019897 -5.139801l0.95095825 -1.0935669zm271.18243 -0.7655029c2.1132812 2.2600555 4.0151978 4.684143 5.7057495 7.2722626c1.6906128 2.5881195 3.6981812 5.012207 6.022766 7.2722626c0 0.7290497 0.052856445 1.2575989 0.1585083 1.5856781c0.105651855 0.32806396 0.42266846 0.7837219 0.95098877 1.3669586c-0.10571289 1.0206757 -0.5019531 1.7861786 -1.1887207 2.2965088c-0.6868286 0.5103302 -1.2415161 1.1664734 -1.6641846 1.9684296c-3.4868774 1.2393799 -6.8152466 2.4605408 -9.985107 3.6634674c-3.1698608 1.2029419 -6.973694 2.16893 -11.411499 2.8979797c-2.1132812 0 -4.411438 0.16403198 -6.89447 0.49209595c-2.4830933 0.32807922 -5.018982 0.5650177 -7.607727 0.7108307c-1.0354614 0.05831909 -2.0582886 0.08747864 -3.0684204 0.08747864c-1.5151978 0 -3.001892 -0.06561279 -4.460022 -0.19683838c-2.4302368 -0.21871948 -4.543457 -0.8384094 -6.3397217 -1.8590698c0.105651855 -1.7497253 0.5811157 -3.280716 1.4264526 -4.5930176c0.8452759 -1.3122864 1.84906 -2.5516663 3.0113525 -3.7181396c1.1622925 -1.1664734 2.3510132 -2.3147278 3.566101 -3.4447632c1.2151489 -1.1300201 2.2453613 -2.3876343 3.0906372 -3.7728271c0.42266846 -0.11663818 0.710022 -0.17497253 0.8621826 -0.17497253c0.038085938 0 0.06762695 0.0036468506 0.08874512 0.010940552c0.0211792 0.007293701 0.04864502 0.010940552 0.082458496 0.010940552c0.1352539 0 0.37194824 -0.05833435 0.710022 -0.17497253c2.4302368 -2.1142426 5.17749 -3.9733124 8.241699 -5.5772247c3.064209 -1.6039124 6.128418 -3.2442627 9.192627 -4.9210815c0.5282593 0.29162598 1.1358643 0.52856445 1.8226318 0.7108307c0.6868286 0.18225098 1.347229 0.29161072 1.9812012 0.32806396c0.07922363 0.004562378 0.15765381 0.0068359375 0.23522949 0.0068359375c0.5432129 0 1.0458984 -0.1116333 1.5081787 -0.3348999c0.5283203 -0.25517273 0.8981323 -0.67437744 1.109436 -1.2576141c0.3803711 0.26245117 0.74176025 0.39369202 1.0841064 0.39369202c0.22821045 0 0.44799805 -0.05833435 0.6593628 -0.17497253c0.5283203 -0.29162598 0.8981323 -0.58325195 1.109436 -0.8748627zm-451.86505 -23.293114c-5.3887787 3.572342 -9.773758 6.780159 -13.154953 9.623444c-3.3812103 2.8432922 -6.445404 5.650131 -9.192627 8.420517c-2.747223 2.7703857 -5.44162 5.668358 -8.083176 8.693901c-2.6415558 3.0255585 -5.917099 6.4703064 -9.826599 10.334274c-0.63397217 -1.3122864 -1.0566254 -2.8797455 -1.2679443 -4.702362c-0.21133423 -1.8226318 -0.4226532 -3.736374 -0.63397217 -5.741272c-0.21133423 -2.0048828 -0.47547913 -4.046219 -0.79248047 -6.1240005c-0.31698608 -2.0777893 -0.8717041 -4.046219 -1.6641693 -5.9052963c-0.79248047 -1.8590775 -1.8490906 -3.5358887 -3.169876 -5.0304337c-1.3207855 -1.4945526 -3.090622 -2.7157135 -5.30954 -3.663475c0.31698608 -1.020668 -0.21131897 -2.1142426 -1.5849304 -3.280716c-1.3736115 -1.166481 -3.222702 -1.8226242 -5.5472717 -1.9684372c-0.95095825 0.6561508 -1.9811707 1.2576141 -3.090622 1.8043976c-1.1094513 0.5467911 -1.9811707 1.2576141 -2.6151428 2.1324692c-0.5283203 0.8019562 -0.7924652 1.9137497 -0.7924652 3.3353958c0 1.4216461 0.105651855 2.9891052 0.31698608 4.7023697c0.21131897 1.7132645 0.44906616 3.4994278 0.71321106 5.3585052c0.26416016 1.8590775 0.39624023 3.5905685 0.39624023 5.1944733c0 1.6768188 -0.07925415 3.444748 -0.23774719 5.303833c-0.15849304 1.8590698 -0.026412964 3.6270142 0.39624023 5.303833c0.21131897 0.8019409 0.5547333 1.4945374 1.0302124 2.0777893c0.47547913 0.5832367 0.66038513 1.2393799 0.554718 1.9684296c-0.105651855 1.4580994 0.026412964 3.0437775 0.39624023 4.7570343c0.369812 1.7132721 0.8188782 3.4629822 1.3471985 5.249161c0.52830505 1.7861633 1.1094513 3.5541077 1.7434235 5.3038177c0.63397217 1.7497253 1.1094513 3.390091 1.4264374 4.9210815c0.7396393 0.072906494 1.4264526 0.7290497 2.0604248 1.9684296c0.63397217 1.2393951 0.7924652 2.478775 0.47547913 3.718155c1.3736115 0.21871948 2.4566498 0.7837219 3.249115 1.6950378c0.7924652 0.9113159 1.7698364 1.6585846 2.932129 2.2418213c1.6678467 0.80981445 3.3988953 1.2147064 5.193115 1.2147064c1.2748413 0 2.5815735 -0.20440674 3.9202576 -0.6132355c3.222702 -0.9842224 5.626526 -2.9344177 7.2114563 -5.8506165c-0.105651855 -0.94776917 -0.026412964 -1.6585846 0.23774719 -2.1324615c0.26416016 -0.4738922 0.23773193 -1.1847076 -0.07925415 -2.1324768c0.9509735 -0.5832367 1.9283447 -1.2576141 2.932129 -2.0231018c1.0037994 -0.7655029 1.9283447 -1.5674591 2.7736511 -2.4058685c0.84529114 -0.8384094 1.5585175 -1.7132568 2.1396484 -2.6245728c0.58114624 -0.9113159 0.9245453 -1.8773041 1.0302124 -2.8979645c0.4226532 0 0.76605225 -0.10935974 1.0302124 -0.32807922c0.26416016 -0.21871948 0.5018921 -0.45565796 0.7132263 -0.7108154c0.21131897 -0.25517273 0.4490509 -0.4921112 0.71321106 -0.7108307c0.26416016 -0.21871948 0.66038513 -0.32806396 1.1887054 -0.32806396c1.9019165 -2.9891052 4.1736603 -5.8506165 6.815216 -8.584549c2.641571 -2.7339325 5.415207 -5.3402863 8.320923 -7.8190613c2.9057007 -2.4787598 5.8114166 -4.884613 8.717133 -7.217575c2.905716 -2.3329544 5.5737 -4.59301 8.0039215 -6.7801514c-0.105651855 -1.166481 0.23774719 -2.1689224 1.0302124 -3.0073318c0.7924652 -0.8384018 1.3471985 -1.7679443 1.6641846 -2.7886124l0 0c-0.26416016 0.072906494 -0.46228027 0.10935974 -0.5943451 0.10935974c-0.13208008 0 -0.19812012 -0.036453247 -0.19812012 -0.10935974c0 -0.14580536 0.026412964 -0.38274384 0.07923889 -0.71082306c0.052841187 -0.3280716 0.13208008 -0.6743698 0.23774719 -1.038887c0.105667114 -0.36452484 0 -0.6561508 -0.31698608 -0.8748627c-0.63397217 -0.94776154 -1.0830383 -1.6768112 -1.3471985 -2.187149c-0.26416016 -0.5103302 -0.47547913 -0.9295349 -0.63397217 -1.2576065c-0.15849304 -0.3280716 -0.34339905 -0.6561432 -0.5547333 -0.9842148c-0.21131897 -0.3280716 -0.52830505 -0.85663605 -0.95095825 -1.5856781c-0.72454834 0.08332062 -1.3628235 0.12497711 -1.914856 0.12497711c-0.41401672 0 -0.77952576 -0.02342987 -1.0965271 -0.07030487c-0.739624 -0.10935211 -1.3735962 -0.23693848 -1.9019165 -0.38275146c-0.52830505 -0.14580536 -1.1358643 -0.3280716 -1.8226776 -0.54678345c-0.6867981 -0.21871185 -1.5585175 -0.36452484 -2.6151428 -0.43743134zm182.10909 0.43743134l-1.5849304 1.5310059c-2.324585 2.405861 -4.5963135 4.4654236 -6.8152466 6.178688c-2.2189026 1.7132645 -4.807617 3.0437775 -7.7661743 3.991539l-2.377411 -0.21871185c-0.5282898 0 -1.0037842 0.05467987 -1.4264221 0.16403198c-0.42266846 0.10935974 -0.79248047 0.20049286 -1.1094666 0.27339172l-2.5358887 0.7655029c-1.3736267 1.2393875 -2.509491 2.4423141 -3.4076233 3.6087952c-0.8981323 1.1664734 -1.7698364 2.3694077 -2.6151428 3.6087875c-0.739624 1.020668 -1.4792786 2.023117 -2.2189026 3.0073242c-0.739624 0.9842224 -1.6906128 2.0960236 -2.8528748 3.3354034c-0.21133423 0.3645172 -0.31698608 0.69259644 -0.31698608 0.98420715c0 0.29162598 0.052825928 0.5467987 0.15847778 0.7655029c-0.8453064 1.1664886 -1.6641846 2.332962 -2.4566345 3.4994354c-0.79248047 1.1664886 -1.6113586 2.332962 -2.456665 3.4994354c-2.5358887 3.572342 -4.9925537 7.0717773 -7.369934 10.498306c-2.377411 3.426529 -4.6227417 6.998871 -6.7359924 10.7170105l-0.15847778 1.8590851l-1.7434387 0.98420715l2.0604248 1.3122864c0.21130371 0.14581299 0.3433838 0.36453247 0.39620972 0.6561432c0.052856445 0.29162598 0.18493652 0.6561432 0.39624023 1.0935822c0.10568237 0.3645172 0.21133423 0.7655029 0.31698608 1.2029266c0.10568237 0.4374237 0.63397217 1.0935669 1.5849304 1.9684296c0.8453064 0.36453247 1.5849609 0.74728394 2.218933 1.1482544c0.63397217 0.40097046 1.5321045 0.9295349 2.6943665 1.5856781l1.5849609 0.10935974c0.63397217 0 1.1886902 -0.036453247 1.6641846 -0.10935974c0.47546387 -0.072906494 1.294342 -0.18226624 2.4566345 -0.32806396l1.9019165 -0.21871948l0.47549438 -1.2029266c0.21130371 -0.072906494 0.5018921 -0.16403198 0.8717041 -0.27339172c0.369812 -0.10935974 0.6604004 -0.23693848 0.8717041 -0.38275146c0.6340027 -0.21871948 1.2679749 -0.45565796 1.901947 -0.7108307c0.63397217 -0.25515747 1.2151184 -0.6014557 1.7434082 -1.0388947l0.63397217 -1.2029266c-0.105651855 -0.8748627 0.026428223 -1.7679443 0.39624023 -2.6792603c0.369812 -0.91130066 0.8188782 -1.8408356 1.3471985 -2.7886047c0.31698608 -0.5832367 0.63397217 -1.2029266 0.95095825 -1.8590698c0.31698608 -0.6561432 0.58114624 -1.3122864 0.79248047 -1.9684296c0.21130371 -0.14581299 0.42263794 -0.27340698 0.63397217 -0.38275146c0.21133423 -0.10935974 0.42263794 -0.23695374 0.63397217 -0.38275146l0.79244995 -1.8590851c0 -0.14579773 0.052856445 -0.34629822 0.1585083 -0.6014557c0.105651855 -0.25517273 0.26416016 -0.4192047 0.47549438 -0.4921112l1.5849304 -0.21871948l0.63397217 -1.0935669c0.31698608 -0.94776917 0.79244995 -1.8590698 1.4264221 -2.7339325c0.10568237 0.6561432 0.42266846 1.3122864 0.95098877 1.9684296c-0.3170166 0.94776917 -0.18493652 1.7314911 0.39620972 2.351181c0.58114624 0.61968994 1.1358948 1.1118011 1.6641846 1.4763184c0.21133423 0.14581299 0.42266846 0.27339172 0.63397217 0.38275146c0.21133423 0.10935974 0.42266846 0.5650177 0.63397217 1.3669739l1.5849609 0.21871948c0.8452759 0.072891235 1.6377563 0.12757874 2.3773804 0.16403198c0.73965454 0.036453247 1.5321045 0.05467224 2.377411 0.05467224c2.324585 0 4.4642334 -0.12757874 6.418976 -0.38275146c1.954773 -0.25515747 3.8831177 -0.56500244 5.785034 -0.9295349c1.4792786 -0.29161072 2.932129 -0.54678345 4.358551 -0.7655029c0.61135864 -0.09373474 1.2857666 -0.14059448 2.0232239 -0.14059448c0.9833069 0 2.0787659 0.08331299 3.286316 0.24995422c0.21133423 1.8955231 -0.13208008 3.2442627 -1.0302124 4.046219c-0.8981323 0.8019562 -2.6679688 1.4580994 -5.3095093 1.9684296l-4.2793274 0.7655029l2.6943665 2.0777893c0.21133423 0.21871948 0.47549438 0.43743896 0.79248047 0.6561432c0.31698608 0.21871948 0.63397217 0.43743896 0.95095825 0.6561432c0.95095825 0.5832367 1.5849304 1.0388947 1.9019165 1.3669739c0.31698608 0.32806396 0.369812 0.7837219 0.1585083 1.3669586l-0.63397217 1.4216461l1.9019165 0.54678345c0.21133423 0.072906494 0.44906616 0.16404724 0.7132263 0.27340698c0.26416016 0.10934448 0.554718 0.23693848 0.8717041 0.38275146c0.5283203 0.21870422 1.0302124 0.4556427 1.5057068 0.7108154c0.47546387 0.25517273 1.4000244 0.4921112 2.7736206 0.7108154c2.2189026 -0.072891235 4.3321533 -0.4374237 6.339752 -1.0935669c2.0075684 -0.6561432 3.8302612 -1.4763184 5.4680176 -2.4605408c1.6377563 -0.98420715 3.064209 -2.1142426 4.2793274 -3.3900757c1.2151184 -1.2758331 2.1396484 -2.5334473 2.7736206 -3.7728271l0.31698608 -0.4374237c0.21133423 -1.3851929 0.21133423 -2.7339325 0 -4.046219c-0.21130371 -1.3123016 -0.47546387 -2.5881348 -0.79244995 -3.8275146c-0.21133423 -0.4374237 -0.3434143 -0.8566284 -0.39624023 -1.2576141c-0.052825928 -0.40097046 -0.13208008 -0.8201752 -0.23773193 -1.2575989c2.4302368 -0.8019562 4.622711 -1.8043976 6.577484 -3.0073242c1.9547424 -1.2029419 3.4604492 -2.4605408 4.5170593 -3.7728271l1.2679443 -1.6403656l-2.377411 -0.6561432c-0.42263794 -0.14581299 -0.8452759 -0.36453247 -1.2679443 -0.6561432c-0.5282898 -0.36453247 -1.109436 -0.7108307 -1.7434082 -1.0388947c-0.6340027 -0.32807922 -1.6377869 -0.52856445 -3.011383 -0.60147095c-0.95095825 -0.3645172 -1.4792786 -0.7290497 -1.5849304 -1.0935669l-0.63397217 -1.0935822l-1.7434387 0.10935974c-0.73965454 0.072906494 -1.4000244 0.14581299 -1.9811707 0.21871948c-0.58114624 0.072906494 -1.1358643 0.18226624 -1.6641846 0.32806396c-0.21133423 -0.072891235 -0.739624 -0.10934448 -1.5849304 -0.10934448c-0.8453064 -1.4580994 -1.5321045 -3.0073242 -2.0604248 -4.64769c-0.5283203 -1.6403656 -1.0566101 -3.3354034 -1.5849304 -5.0851135c-0.31698608 -1.2393799 -0.6604004 -2.4605408 -1.0302124 -3.663475c-0.369812 -1.2029266 -0.8188782 -2.4240875 -1.3471985 -3.6634674c-0.105651855 -1.5310059 -0.29055786 -2.9161987 -0.554718 -4.1555786c-0.26416016 -1.2393875 -0.554718 -2.4787674 -0.8717041 -3.7181473c-0.21133423 -0.5832443 -0.36984253 -1.166481 -0.47549438 -1.7497177c-0.105651855 -0.5832443 -0.47549438 -1.4580994 -1.1094666 -2.6245804c-1.0566101 -0.72904205 -2.4302368 -1.2758331 -4.120819 -1.640358c-1.6906128 -0.36452484 -3.486847 -0.69259644 -5.388794 -0.9842148c-1.0566101 -0.21871185 -2.0603943 -0.4192047 -3.0113525 -0.6014633c-0.95095825 -0.18226624 -1.6906128 -0.38275146 -2.218933 -0.6014633l-2.0603943 -0.8748627zm269.9145 -1.9684296c-1.3735962 0.5832367 -2.4038086 1.1300201 -3.0906372 1.640358c-0.6868286 0.5103378 -1.4528809 1.2758331 -2.2981567 2.2965012c-1.1622925 0.14581299 -2.0339966 0.21871948 -2.6151123 0.21871948c-0.58117676 0 -1.347229 0.036453247 -2.2981567 0.10935211c-1.2679443 1.0935745 -2.3510132 2.023117 -3.2491455 2.7886124c-0.8981323 0.7655029 -2.2981567 1.4398727 -4.2000732 2.0231094l0 1.2029343c-0.8452759 0.14580536 -1.5849609 0.38275146 -2.218933 0.71082306c-0.63397217 0.3280716 -1.2415161 0.6743698 -1.8226318 1.0388947c-0.58117676 0.36452484 -1.1887207 0.69259644 -1.8226929 0.9842148c-0.63397217 0.29161835 -1.4264526 0.5103302 -2.3773804 0.6561432c-0.8453369 1.020668 -1.9812012 1.8043976 -3.4076538 2.351181c-1.4264526 0.5467911 -2.5094604 1.3669662 -3.2490845 2.4605408c-0.5283203 0.072906494 -0.977417 0.2551651 -1.347229 0.5467911c-0.369812 0.29161835 -0.7131958 0.6014633 -1.0302124 0.9295349c-0.31695557 0.3280716 -0.6604004 0.5832367 -1.0302124 0.7655029c-0.20544434 0.101249695 -0.45166016 0.15187836 -0.73864746 0.15187836c-0.22955322 0 -0.4852295 -0.03240204 -0.7670288 -0.097206116c-2.8528442 2.332962 -5.8114014 4.7205887 -8.87561 7.1629105c-3.064209 2.4423065 -5.785034 5.1033325 -8.162415 7.983078c-2.3774414 2.8797455 -4.2000732 6.0146484 -5.4680176 9.404739c-1.2680054 3.3900757 -1.4793091 7.162903 -0.63397217 11.318481c1.1622314 1.9684296 2.6679688 3.8457336 4.517029 5.631897c1.8491211 1.7861633 4.0151978 3.3171692 6.49823 4.5930023c2.4830933 1.2758331 5.3359375 2.2053833 8.558655 2.78862c1.9832153 0.35891724 4.076416 0.53837585 6.279724 0.53837585c1.3770142 0 2.797058 -0.07009888 4.260132 -0.21031189c2.7931519 0.4057312 5.343384 0.6085968 7.650818 0.6085968c1.0094604 0 1.9724731 -0.03883362 2.888977 -0.116485596c3.0113525 -0.25517273 6.1019897 -0.7837219 9.271851 -1.5856781c0.3623047 0.020828247 0.7418213 0.03125 1.1385498 0.03125c0.9920044 0 2.0917358 -0.065093994 3.2993164 -0.19528198c1.6905518 -0.18226624 3.3811646 -0.4738922 5.0717773 -0.8748627c1.6906128 -0.40098572 3.3283691 -0.8384094 4.913269 -1.3122864c1.5849609 -0.4738922 2.9585571 -0.9295349 4.1208496 -1.3669739c1.479248 -0.21870422 2.932129 -0.4374237 4.3585815 -0.6561432c1.4264526 -0.21871948 2.7208252 -0.5832367 3.8830566 -1.0935669c1.7962646 -1.0206757 3.7510376 -1.8955231 5.864258 -2.6245728c2.1132812 -0.7290497 3.909546 -1.7497253 5.388794 -3.0620117c1.1622925 -0.4374237 2.1660767 -1.1118011 3.0114136 -2.023117c0.8452759 -0.91130066 1.5321045 -1.9319763 2.0604248 -3.0619965c0.5282593 -1.1300201 0.8980713 -2.2965088 1.109436 -3.4994354c0.21130371 -1.2029266 0.21130371 -2.3147278 0 -3.3354034c-0.21136475 -0.8019409 -0.5283203 -1.6038971 -0.95098877 -2.4058533c-0.42260742 -0.8019562 -0.8717041 -1.5856781 -1.347168 -2.351181c-0.47546387 -0.7655029 -0.8717041 -1.5492401 -1.1887207 -2.351181c-0.31695557 -0.8019562 -0.42266846 -1.6403656 -0.31695557 -2.5152283c-2.5359497 -2.8432922 -4.807678 -5.8506165 -6.8152466 -9.021973c-2.0075684 -3.1713562 -4.279297 -6.178688 -6.8152466 -9.02198c0.42266846 -0.29161835 0.58117676 -0.7655029 0.4755249 -1.4216461c-0.105651855 -0.36452484 -0.42266846 -0.5650101 -0.95098877 -0.6014633c-0.5283203 -0.036453247 -0.739624 -0.30984497 -0.63397217 -0.8201828c1.0566406 -0.36452484 1.717041 -0.9295349 1.9812012 -1.6950378c0.26416016 -0.7655029 0.66033936 -1.5127716 1.1886597 -2.2418213c-0.42260742 -0.94776917 -0.8452759 -1.5856857 -1.2679443 -1.9137573c-0.42260742 -0.3280716 -0.79248047 -1.0024414 -1.109436 -2.0231094c-0.14086914 -0.024299622 -0.26708984 -0.036453247 -0.37860107 -0.036453247c-0.2230835 0 -0.38745117 0.048606873 -0.49310303 0.14581299c-0.105651855 0.097206116 -0.27008057 0.14580536 -0.49310303 0.14580536c-0.11151123 0 -0.23773193 -0.012145996 -0.37860107 -0.036445618c-0.21136475 -0.6561508 -0.607605 -1.166481 -1.1887207 -1.5310059c-0.58117676 -0.36452484 -1.1887207 -0.71082306 -1.8226929 -1.0388947c-0.63397217 -0.3280716 -1.2150879 -0.69259644 -1.7434082 -1.0935745c-0.5283203 -0.4009781 -0.8453369 -0.96598816 -0.95098877 -1.6950378c-1.1622925 -0.8019562 -2.5094604 -1.2758331 -4.041565 -1.4216461c-1.5321045 -0.14580536 -2.932129 -0.4374237 -4.2000732 -0.87485504zm-411.13223 0.87485504c-3.381195 0.8748627 -5.943512 2.0595627 -7.6869507 3.5541153c-1.7434235 1.4945526 -3.566101 3.371849 -5.4680176 5.6319046c-0.63397217 0.72904205 -1.2943726 1.4763184 -1.9811707 2.2418213c-0.68681335 0.7655029 -1.4528656 1.5856781 -2.2981567 2.4605408c-1.0566254 1.0935745 -2.3509827 2.6974792 -3.8830872 4.811722c-1.5321045 2.1142426 -3.1434631 4.428978 -4.8340607 6.944191c-1.6905975 2.515213 -3.381195 5.1033325 -5.0717926 7.764374c-1.6905975 2.661026 -3.196289 5.0851135 -4.5170593 7.2722626c-1.3207855 2.1871338 -2.4038239 3.9733124 -3.249115 5.3585052c-0.8453064 1.3851929 -1.2679596 2.1142426 -1.2679596 2.187149c-0.95095825 1.5309906 -1.4528503 3.3353882 -1.5056763 5.4131775c-0.052841187 2.0777893 0.21131897 4.1373596 0.7924652 6.1786957c0.581131 2.041336 1.4264374 3.9550781 2.5358887 5.7412567c1.1094513 1.7861633 2.350998 3.1895905 3.724594 4.210251c1.9019318 0.21871948 3.2755432 0.32807922 4.1208344 0.32807922c1.7962646 0 3.222702 -0.38275146 4.2793274 -1.1482544c1.0566254 -0.7655029 2.4830627 -2.4240875 4.2793274 -4.975754c0.21131897 -0.43743896 0.31698608 -0.9113159 0.31698608 -1.4216461c0.105667114 -0.36453247 0.184906 -0.7290497 0.23774719 -1.0935822c0.052825928 -0.3645172 0.184906 -0.7290497 0.39622498 -1.0935669c0.31698608 -0.36453247 0.7132263 -0.7108307 1.1887054 -1.0388947c0.47547913 -0.32807922 0.9245453 -0.67437744 1.3471985 -1.0388947c0.7396393 -0.36453247 1.2151184 -0.8748627 1.4264374 -1.5310059c-0.4226532 -0.5103302 -0.52830505 -1.0571136 -0.31698608 -1.6403503c0.52830505 -1.0935822 1.3207855 -2.0777893 2.3773956 -2.952652c1.0566254 -0.8748627 2.0604248 -1.6403656 3.011383 -2.2965088c-0.105667114 -0.8748627 0.07925415 -1.9137573 0.5547333 -3.116684c0.47547913 -1.2029266 1.0301971 -2.3876343 1.6641846 -3.5541077c0.63397217 -1.1664734 1.2679443 -2.205368 1.9019165 -3.116684c0.63397217 -0.9113159 1.1094513 -1.5127716 1.4264374 -1.8043976l1.2679443 -1.4216461l1.2679596 1.6403656c4.437805 6.1969147 11.094543 9.295364 19.970184 9.295364c3.486847 0 7.052948 -0.40097046 10.698303 -1.2029266c3.6453552 -0.8019562 7.2378845 -1.8408508 10.777557 -3.116684c3.5397034 -1.2758331 6.947296 -2.661026 10.222839 -4.1555786c3.2755432 -1.4945526 6.2869263 -2.9344177 9.034149 -4.3196106c0.21130371 -0.43743896 0.5018921 -0.69259644 0.8717041 -0.7655029c0.369812 -0.072906494 0.76605225 -0.10935974 1.1886902 -0.10935974l1.4264526 1.0935669c0 0.65615845 -0.26416016 1.0935822 -0.79248047 1.3123016c-3.381195 8.092438 -4.992523 14.763229 -4.8340454 20.01239c0.1585083 5.2491455 2.2981567 8.930847 6.418976 11.045074c1.1622925 0 2.192505 -0.14579773 3.0906372 -0.4374237c0.8981323 -0.29161072 1.8755188 -0.61968994 2.932129 -0.98420715c0.8453064 -0.29162598 1.6377563 -0.5650177 2.377411 -0.8201904c0.739624 -0.25515747 1.5849304 -0.4921112 2.5358887 -0.7108154c0.21133423 -0.36453247 0.44906616 -0.7290497 0.7132263 -1.0935822c0.26416016 -0.3645172 0.5018921 -0.7290497 0.7132263 -1.0935669c2.1132507 -3.3536224 4.1472473 -6.9441833 6.1019897 -10.771698c1.9547424 -3.8274994 2.7207947 -8.074219 2.2981567 -12.740128c0.63397217 -0.94776917 1.1358643 -1.8226166 1.5057068 -2.6245728c0.369812 -0.8019562 0.6603699 -1.6585846 0.8717041 -2.5699005c0.21133423 -0.9113159 0.29055786 -1.8955231 0.23773193 -2.952652c-0.052825928 -1.0571136 -0.13208008 -2.533432 -0.23773193 -4.4289703c0.63397217 -0.7290497 1.1886902 -1.7132568 1.6641846 -2.9526367c0.47546387 -1.2393875 0.60754395 -2.3694153 0.39624023 -3.3900833l-0.47549438 -2.0777893l3.011383 0.21871948c-0.21133423 -0.29162598 -0.369812 -0.5467911 -0.47549438 -0.7655029c-0.105651855 -0.21871948 -0.21130371 -0.43743134 -0.31698608 -0.6561432c-0.42263794 -0.6561432 -0.76605225 -1.2940674 -1.0302124 -1.9137573c-0.26412964 -0.61968994 -0.29055786 -1.2940598 -0.07922363 -2.0231094c-1.901947 -0.87485504 -3.2227173 -2.1506958 -3.9623413 -3.827507c-0.42266846 -0.5832367 -1.4264526 -1.1664734 -3.011383 -1.7497177c-0.21133423 -0.072906494 -0.369812 -0.14580536 -0.47549438 -0.21871185c-0.105651855 -0.072906494 -0.369812 -0.21871185 -0.79244995 -0.43743134c-0.8453064 -0.5103302 -1.2679443 -1.1300278 -1.2679443 -1.8590698c-0.21133423 -0.072906494 -0.44906616 -0.14581299 -0.7132263 -0.21871948c-0.26416016 -0.072906494 -0.554718 -0.1822586 -0.8717041 -0.3280716c-1.1622925 -0.36452484 -2.377411 -0.7290497 -3.6453552 -1.0935745c-1.2679749 -0.36452484 -2.4830627 -0.54678345 -3.6453552 -0.54678345c-1.1622925 0 -2.271759 0.21871185 -3.3283691 0.6561432c-1.7962646 3.062004 -4.1736755 5.613678 -7.132202 7.655014c-2.9585571 2.041336 -6.022766 3.9368591 -9.192627 5.686577c-1.6906128 0.94776917 -3.3019714 1.8955307 -4.8340454 2.8432922c-1.5321045 0.94776154 -3.2491455 2.041336 -5.151062 3.280716c-0.8453064 0.072906494 -1.6905823 0.27339935 -2.5358887 0.6014633c-0.8453064 0.32807922 -1.6906128 0.7108307 -2.5358887 1.1482544c-1.2679443 0.5832367 -2.6151428 1.1482544 -4.0415955 1.6950378c-1.4264526 0.54678345 -2.9849548 0.8201904 -4.6755676 0.8201904c-1.479248 0 -3.1698608 -0.51034546 -5.0717773 -1.5310059c-0.21133423 -0.6561432 -0.31698608 -1.2576141 -0.31698608 -1.8043976c0 -0.54678345 0.052825928 -1.0753479 0.15847778 -1.5856857c0.31698608 -1.1664734 0.21133423 -2.0777893 -0.31698608 -2.7339325l-0.15847778 -1.0935669c0.5282898 -0.94776917 0.76605225 -1.8590775 0.7132263 -2.7339401c-0.052856445 -0.87485504 -0.31698608 -1.7314911 -0.79248047 -2.569893c-0.47549438 -0.8384094 -1.1094666 -1.6768112 -1.9019165 -2.5152206c-0.79248047 -0.8384018 -1.6113586 -1.6950378 -2.456665 -2.569893c-0.63397217 -0.8019562 -1.3207703 -1.4945526 -2.0603943 -2.0777893c-0.95098877 -0.14581299 -1.8226929 -0.30984497 -2.6151428 -0.4921112c-0.79248047 -0.1822586 -1.769867 -0.38275146 -2.932129 -0.6014633c-0.8453064 0 -1.4792786 -0.36452484 -1.901947 -1.0935745l-0.31698608 -1.2029266c-1.0566101 -0.8748627 -2.747223 -1.6403656 -5.0717773 -2.2965088zm259.9294 0.5467911c-0.63397217 0.87485504 -1.1622925 1.8408432 -1.5849609 2.8979645c-0.42266846 1.0571213 -0.8452759 2.1142426 -1.2679443 3.1713638c-0.42266846 1.0571213 -0.8981323 2.0595627 -1.4264526 3.0073242c-0.5283203 0.94776917 -1.2679443 1.7497177 -2.218872 2.405861c-0.8453369 3.572342 -1.6377869 7.0717773 -2.3774414 10.498306c-0.739624 3.426529 -1.8226624 6.6343384 -3.249115 9.623444c-1.4264221 2.9891052 -3.2755127 5.6865845 -5.5472717 8.092438c-2.2717285 2.4058685 -5.30954 4.374298 -9.113373 5.905304c-0.63397217 -1.8955383 -1.0037842 -3.736374 -1.1094666 -5.5225525c-0.105651855 -1.7861633 -0.13204956 -3.4994354 -0.07922363 -5.139786c0.052825928 -1.6403656 0.13208008 -3.262497 0.23773193 -4.8664093c0.105651855 -1.6039124 0 -3.2078094 -0.31698608 -4.811722l0 0c0.12680054 0.029159546 0.24090576 0.04374695 0.3423462 0.04374695c0.15216064 0 0.27578735 -0.032806396 0.37088013 -0.09841919c0.15847778 -0.10935974 0.29055786 -0.21871948 0.39624023 -0.32807922c0.105651855 -0.10935974 0.23773193 -0.21870422 0.39620972 -0.32806396c0.1585083 -0.10935974 0.39624023 -0.16404724 0.7132263 -0.16404724c-0.31698608 -0.7290497 -0.369812 -1.3305054 -0.15847778 -1.8043823c0.21130371 -0.4738922 0.47546387 -0.9113159 0.79244995 -1.312294c0.31698608 -0.4009781 0.55474854 -0.85663605 0.7132263 -1.3669662c0.1585083 -0.5103378 0.026428223 -1.166481 -0.39624023 -1.9684296l0 0c0.26416016 0.072898865 0.48208618 0.10935211 0.6538086 0.10935211c0.1716919 0 0.29714966 -0.036453247 0.3764038 -0.10935211c0.105651855 -0.097206116 0.27001953 -0.14581299 0.49310303 -0.14581299c0.11151123 0 0.23773193 0.0121536255 0.37860107 0.036453247c-0.31698608 -0.43743134 -0.47546387 -0.78372955 -0.47546387 -1.0388947c0 -0.2551651 0.026397705 -0.45565796 0.07925415 -0.6014633c0.052825928 -0.14581299 0.052825928 -0.29162598 0 -0.43743134c-0.052856445 -0.14581299 -0.29058838 -0.4009781 -0.7132263 -0.7655029c0.14086914 -0.14580536 0.29348755 -0.21871185 0.45785522 -0.21871185c0.08218384 0 0.16729736 0.018226624 0.2553711 0.05467987c0.052825928 0.021865845 0.10458374 0.032806396 0.15530396 0.032806396c0.20288086 0 0.38885498 -0.17497253 0.55789185 -0.5249176c-0.42263794 -1.7497177 -1.3207703 -3.3353958 -2.6943665 -4.757042c-1.3736267 -1.4216461 -3.0378113 -2.6792526 -4.9925537 -3.7728271c-1.9547424 -1.0935745 -4.120819 -2.0595627 -6.49823 -2.897972c-2.377411 -0.8384018 -4.7812195 -1.5856781 -7.2114563 -2.2418213c-5.494446 8.384056 -11.305878 16.87748 -17.434296 25.480255c-6.128418 8.602768 -11.781342 16.69522 -16.958801 24.277328c0.5283203 0.5103302 0.8981323 1.1482391 1.109436 1.9137421c0.21133423 0.7655029 0.1585083 1.5492401 -0.15847778 2.351181c0.739624 1.0206757 1.5056763 2.2236023 2.2981567 3.6087952c0.79244995 1.3851929 1.6905823 2.7521667 2.694397 4.1009064c1.0037842 1.3487396 2.1660767 2.5698853 3.486847 3.6634674c1.3207703 1.0935669 2.9849548 1.8590698 4.9925537 2.2965088c0.8453064 -0.072906494 1.5585022 -0.23695374 2.1396484 -0.4921112c0.369812 -0.16238403 0.8572998 -0.24357605 1.4624634 -0.24357605c0.3458252 0 0.7300415 0.026519775 1.1526794 0.07954407c-0.105651855 -0.43743896 -0.26416016 -0.69259644 -0.47546387 -0.7655029c-0.21133423 -0.072906494 -0.1585083 -0.25517273 0.15847778 -0.5467987c0.21133423 0.009124756 0.4143982 0.013671875 0.6092224 0.013671875c1.3637085 0 2.3229065 -0.2232666 2.877655 -0.66981506c0.63397217 -0.5103302 1.0830383 -1.1300201 1.347168 -1.8590698c0.26416016 -0.7290497 0.5019226 -1.4945526 0.7132263 -2.2965088c0.21133423 -0.8019409 0.73965454 -1.4216461 1.5849304 -1.8590698c-0.42263794 -0.7290497 -0.5282898 -1.3669586 -0.31698608 -1.9137573c0.21133423 -0.54678345 0.5283203 -1.0571136 0.95098877 -1.5309906c0.42263794 -0.4738922 0.8717041 -0.9295502 1.347168 -1.3669739c0.47549438 -0.4374237 0.76605225 -0.94776917 0.8717346 -1.5310059c0.739624 0 1.294342 -0.27339172 1.6641846 -0.8201752c0.369812 -0.54678345 0.739624 -1.1482544 1.109436 -1.8043976c0.369812 -0.6561432 0.76605225 -1.2940521 1.1887207 -1.9137573c0.42263794 -0.61968994 1.109436 -1.0024414 2.0603943 -1.1482391c2.1132507 3.9368591 4.834076 7.326935 8.162415 10.170227c3.3283691 2.8432922 7.1586304 5.3585052 11.490784 7.5456543c2.2758179 0.5608063 4.2233887 0.8412018 5.8427124 0.8412018c0.4857788 0 0.9420471 -0.025238037 1.3687439 -0.07569885c1.8490906 -0.21871948 3.4340515 -0.6561432 4.754822 -1.3122864c1.3207703 -0.6561432 2.562317 -1.3851929 3.7245789 -2.187149c1.1622925 -0.8019562 2.4830933 -1.4216461 3.9623413 -1.8590698c-0.21130371 -0.36453247 -0.29058838 -0.65615845 -0.23773193 -0.8748627c0.052856445 -0.21871948 0.1585083 -0.38275146 0.3170166 -0.4921112c0.15844727 -0.10935974 0.29052734 -0.23693848 0.3961792 -0.38275146c0.10571289 -0.14581299 0.10571289 -0.3645172 0 -0.6561432l0 0c0.63397217 0.072906494 1.0038452 0.18226624 1.1094971 0.32807922c0.035217285 0.048599243 0.088012695 0.072891235 0.1585083 0.072891235c0.14086914 0 0.35217285 -0.09719849 0.63397217 -0.29161072c1.0565796 -1.3122864 2.0603638 -2.6245728 3.0113525 -3.9368591c0.95092773 -1.3123016 2.2717285 -2.4423218 3.9623413 -3.390091c0.5283203 -1.5309906 1.2679443 -3.2442627 2.218933 -5.139786c0.95092773 -1.8955231 1.84906 -3.6817017 2.694336 -5.3585052c-0.105651855 -1.9684296 0 -3.7728271 0.3170166 -5.4131927c0.31695557 -1.6403656 0.7131958 -3.2260437 1.1887207 -4.7570343c0.47546387 -1.5310059 0.95092773 -3.080246 1.4263916 -4.64769c0.4755249 -1.5674591 0.87176514 -3.2989502 1.1887207 -5.1944733c0.95098877 -0.43743134 1.6906128 -0.9659958 2.218933 -1.5856857c0.5283203 -0.61968994 0.95092773 -1.2940598 1.2679443 -2.0231094c0.17456055 -0.40146637 0.34106445 -0.80293274 0.4996338 -1.2043991l0 0c0.122558594 0.28349304 0.22015381 0.5756073 0.29284668 0.8763275l1.4263916 1.3122864c0.42266846 0.072906494 1.2679443 0.69259644 2.5359497 1.8590775c0.95092773 0.36452484 1.84906 0.6014633 2.694336 0.71082306c0.8453369 0.10935211 1.6378174 0.16403198 2.3774414 0.16403198c0.21130371 0 0.47546387 -0.018226624 0.79248047 -0.05467987c0.31695557 -0.036445618 0.5811157 -0.05467224 0.79241943 -0.05467224l5.2302856 0c0.63397217 -0.21871948 1.4793091 -0.3280716 2.5359497 -0.3280716c0.21130371 0 0.44903564 0.018226624 0.7131958 0.05467224c0.26416016 0.036453247 0.55474854 0.05467987 0.8717041 0.05467987l1.5849609 0c1.3735962 0 2.6415405 -0.1822586 3.803833 -0.54678345c0.31695557 0.072906494 0.8452759 0.10935974 1.5848999 0.10935974c0.5283203 0 1.0566406 -0.018226624 1.5849609 -0.05467987c0.5283203 -0.036453247 1.109436 -0.09113312 1.7434082 -0.16403961c0.5283203 -0.072906494 1.0566406 -0.12757874 1.5849609 -0.16403198c0.5283203 -0.036453247 1.109436 -0.05467987 1.7434082 -0.05467987c-0.21130371 0.36452484 -0.44903564 0.78372955 -0.7131958 1.2576065c-0.26416016 0.47388458 -0.55474854 0.96598816 -0.8717041 1.476326c-0.5283203 0.80194855 -1.0302124 1.5856857 -1.5056763 2.3511887c-0.4755249 0.7654877 -1.0830688 1.7314758 -1.8226929 2.8979645l-1.4264526 1.0935669c-0.63397217 1.6039124 -1.3735962 3.1531372 -2.218933 4.64769c-0.8452759 1.4945526 -1.6905518 2.970871 -2.5358887 4.4289703c-1.479248 2.6974792 -2.9057007 5.504318 -4.279297 8.420517c-1.3735962 2.9161987 -1.954773 6.4885254 -1.7434692 10.7170105c0.42266846 0.43743896 0.76605225 0.94776917 1.0302124 1.5310059c0.26416016 0.5832367 0.5018921 1.2029266 0.71325684 1.8590698c0.21130371 0.8019562 0.5018921 1.6039124 0.8717041 2.4058685c0.369812 0.8019562 0.92456055 1.5310059 1.6641846 2.187149c0 0.072906494 0 0.5103302 0 1.3122864l1.4264526 0.54678345c0.8452759 0.29162598 1.9547119 0.6561432 3.3283691 1.0935669c0.42260742 0.43743896 0.8981323 0.7290497 1.4263916 0.8748627c0.5283203 0.14581299 1.2151489 0.32807922 2.0604248 0.54678345c0.105651855 0.21871948 0.42266846 0.51034546 0.95098877 0.8748627l1.9019165 0c3.803833 0 6.49823 -0.69259644 8.083191 -2.0777893c1.479248 -1.2393799 1.9547119 -2.9161987 1.4263916 -5.0304413l-1.4263916 -1.0935669c-0.8453369 -0.29162598 -1.4793091 -0.54678345 -1.9019165 -0.7655029c-0.3170166 -0.072906494 -0.79248047 -0.25517273 -1.4264526 -0.54678345c-0.105651855 -0.36453247 -0.29058838 -0.6561432 -0.55474854 -0.8748627c-0.26416016 -0.21871948 -0.55474854 -0.47387695 -0.8717041 -0.7655029c-0.105651855 -0.5103302 0 -1.2029266 0.31695557 -2.0777893c0.10571289 -0.3645172 0.21136475 -0.7472687 0.3170166 -1.1482544c0.105651855 -0.40097046 0.105651855 -0.7837219 0 -1.1482391c0.5283203 -0.21871948 0.79248047 -0.69259644 0.79248047 -1.4216461c0 -0.14581299 0.05279541 -0.38275146 0.15844727 -0.7108307c0.10571289 -0.32806396 0.26416016 -0.6743622 0.4755249 -1.0388947c0.63397217 -0.8019562 1.0037842 -1.6038971 1.109436 -2.4058533c0.42266846 -0.21871948 0.6868286 -0.45565796 0.79248047 -0.7108307c0.105651855 -0.25515747 0.47546387 -0.6014557 1.109436 -1.0388947l0.63397217 -1.3122864c0.3170166 -0.8748627 0.79248047 -1.9137573 1.4264526 -3.116684c0.63397217 -1.2029266 1.5849609 -2.351181 2.8529053 -3.444748c0.42260742 -1.2393951 0.97735596 -2.351181 1.6641846 -3.3354034c0.6867676 -0.9842224 1.5584717 -2.0595703 2.6151123 -3.2260437c0.63397217 -1.4580994 1.2943726 -2.825058 1.9812012 -4.100891c0.6867676 -1.2758484 1.4528198 -2.5334473 2.2981567 -3.7728271c0.8452759 -1.1664886 1.6377563 -2.3694153 2.3773804 -3.6087952c0.739624 -1.2393875 1.479248 -2.6610336 2.218933 -4.2649384c1.5848999 -0.072906494 3.3547363 -0.1822586 5.3095093 -0.3280716c1.954773 -0.14581299 3.9887695 -0.3280716 6.1019897 -0.54678345c2.9585571 -0.29162598 5.9699097 -0.5650177 9.034119 -0.8201828c3.064209 -0.2551651 5.9171143 -0.38275146 8.558655 -0.38275146c0.63397217 0 1.2415771 0.018226624 1.8226929 0.05467987c0.5811157 0.036453247 1.347168 0.05467987 2.2981567 0.05467987c0.5283203 -0.072906494 1.0037842 -0.16403961 1.4264526 -0.27339172c0.42266846 -0.10935974 0.8452759 -0.2369461 1.2679443 -0.38275146c0.5283203 -0.14581299 1.0566406 -0.27339172 1.5848999 -0.38275146c0.5283203 -0.10935974 1.1094971 -0.16403961 1.7434692 -0.16403961l1.5848999 0.10935974l1.4264526 -1.3122864c0.42266846 -0.14581299 1.0566406 -0.6561432 1.9019165 -1.5310059c0.3170166 -2.1142426 -0.15844727 -3.7181473 -1.4264526 -4.811722c-1.2679443 -1.0935745 -2.5358887 -2.041336 -3.803833 -2.8432922c-0.63397217 -0.3645172 -1.2415161 -0.72904205 -1.8226318 -1.0935669c-0.58117676 -0.36452484 -1.0302124 -0.7655029 -1.347229 -1.2029343l-1.5848999 -0.7655029c-1.1622925 -0.14580536 -2.4302368 -0.2551651 -3.803894 -0.3280716c-1.3735962 -0.072898865 -2.8000488 -0.10935211 -4.279297 -0.10935211c-3.3812256 0 -6.89447 0.14580536 -10.539856 0.4374237c-3.6453247 0.29162598 -7.264282 0.6196976 -10.8567505 0.9842224c-2.4302368 0.29161835 -4.8341064 0.5285568 -7.211487 0.7108154c-2.3773804 0.18226624 -4.7283936 0.34629822 -7.0529785 0.4921112c-0.5283203 -0.36452484 -1.1886597 -0.7472763 -1.9811401 -1.1482544c-0.67059326 -0.3392868 -1.7382812 -0.5089264 -3.203186 -0.5089264c-0.26635742 0 -0.5458374 0.0055999756 -0.8383789 0.016822815l-1.5849609 0.54678345c-0.42266846 0.5832443 -0.8452759 1.2029343 -1.2679443 1.8590775c-2.324585 0.14580536 -4.5698853 0.29161835 -6.735962 0.43743134c-2.1660767 0.14580536 -4.305786 0.29161835 -6.4190063 0.4374237c-3.6981812 0.21871948 -7.2907104 0.4192047 -10.777588 0.60147095c-3.4868164 0.1822586 -6.9208374 0.27339172 -10.302063 0.27339172l-4.437805 0l-2.0604248 -0.10935974l-0.47546387 1.640358c-0.21136475 0.21871948 -0.4755249 0.47388458 -0.79248047 0.7655029c-0.037109375 0.034118652 -0.07269287 0.070236206 -0.106933594 0.10836029l0 0c-0.62060547 -0.64527893 -1.2717896 -1.3010864 -1.9534912 -1.9674377c-1.5848999 -0.14580536 -2.9057007 -0.49210358 -3.9623413 -1.0388947c-1.0566406 -0.54678345 -2.0604248 -1.1300201 -3.0113525 -1.7497101c-0.95098877 -0.6196976 -1.9812012 -1.2029343 -3.0906372 -1.7497177c-1.109436 -0.5467911 -2.456665 -0.8930893 -4.041565 -1.0388947z" fill-rule="evenodd"/><path stroke="#028090" stroke-width="1.0" stroke-linejoin="round" stroke-linecap="butt" d="m123.99292 106.08217c-1.584938 0 -2.932129 0.18226624 -4.041588 0.5467911c-1.1094513 0.36452484 -2.113243 0.78372955 -3.0113754 1.2576065c-0.8981323 0.47388458 -1.769844 1.0024414 -2.6151428 1.5856857c-0.84529877 0.5832367 -1.7434311 1.0935669 -2.6943893 1.5309982c0.2113266 1.2393799 -0.07924652 2.4240875 -0.87171936 3.5541153c-0.7924652 1.1300201 -1.4528503 1.9866562 -1.981163 2.569893c-0.5283127 0.7290497 -0.7132263 1.3487396 -0.5547333 1.8590775c0.15849304 0.5103302 0.07924652 1.166481 -0.23773956 1.9684296c-0.105659485 0.36452484 -0.42264557 0.6014633 -0.95095825 0.71082306c-0.5283127 0.10935974 -0.84529877 0.30984497 -0.95095825 0.6014633c-0.2113266 0.5103378 -0.13208008 1.0571213 0.23773956 1.6403656c0.369812 0.5832367 0.44905853 1.2029266 0.23773956 1.8590698c-0.84529877 2.9890976 -1.9811707 5.868843 -3.4076157 8.639229c-1.4264374 2.7703857 -2.5094757 5.6865845 -3.249115 8.748581c-0.2113266 1.0935822 -0.34339905 2.2418365 -0.3962326 3.4447632c-0.052833557 1.2029266 -0.105667114 2.3876343 -0.15849304 3.5541077c-0.052833557 1.1664734 -0.15849304 2.3147278 -0.31698608 3.4447632c-0.15849304 1.1300201 -0.5018997 2.1324615 -1.0302124 3.0073242c0.4226532 1.2393799 0.9245453 2.661026 1.5056915 4.2649384c0.5811386 1.6038971 1.2415314 3.2260284 1.9811707 4.866394c0.73963165 1.6403656 1.5321045 3.2260437 2.3774033 4.7570496c0.84529877 1.5309906 1.796257 2.806839 2.8528824 3.8274994c1.4264374 0.16403198 2.9123154 0.24604797 4.4576263 0.24604797c0.5151062 0 1.0368118 -0.009109497 1.5651245 -0.027328491c2.1132507 -0.072906494 3.9887543 -0.4192047 5.626526 -1.0388947c1.637764 -0.61968994 2.9057083 -1.5492249 3.8038406 -2.78862c0.8981323 -1.2393799 1.0830383 -2.9526367 0.55472565 -5.139786c-0.95095825 -3.572342 -1.2943649 -7.1082306 -1.0302048 -10.607666c0.26415253 -3.4994354 0.9245453 -6.9806366 1.9811707 -10.443619c1.0566177 -3.4629822 2.4038162 -6.9077454 4.04158 -10.334274c1.6377716 -3.426529 3.407608 -6.8895035 5.30954 -10.388939c-0.8453064 -0.21871185 -1.4528656 -0.6743698 -1.8226776 -1.3669662c-0.36982727 -0.69259644 -0.6075592 -1.4580994 -0.7132263 -2.2965012c-0.105651855 -0.8384094 -0.15849304 -1.6950455 -0.15849304 -2.5699005c0 -0.87485504 0 -1.6039047 0 -2.187149c-1.2679443 -0.4374237 -2.1660767 -1.0388947 -2.6943893 -1.80439c-0.5283127 -0.7655029 -0.9245453 -1.5856857 -1.1886978 -2.4605408c-0.26416016 -0.8748627 -0.5283127 -1.7497177 -0.7924652 -2.6245804c-0.26416016 -0.87485504 -0.8188858 -1.6768112 -1.6641846 -2.405861z" fill-rule="evenodd"/><path stroke="#028090" stroke-width="1.0" stroke-linejoin="round" stroke-linecap="butt" d="m535.3352 113.1894l0 0c0 0 0 0 0 0l0 0c0 0 0 0 0 0zm-136.19751 16.623314c0.95095825 2.3329468 1.8490906 4.684128 2.694397 7.053543c0.8453064 2.3694153 1.6377563 4.64769 2.377411 6.834839c-3.1698914 0.4374237 -6.0491943 0.7472687 -8.637909 0.9295349c-2.588745 0.18225098 -5.4680176 0.34629822 -8.637909 0.49209595c-0.5282898 0.072906494 -1.0830383 0.10935974 -1.6641846 0.10935974c-0.58114624 0 -1.1886902 0.036453247 -1.8226624 0.10935974c0.5283203 -0.6561432 1.1094666 -1.3122864 1.7434387 -1.9684296c0.63397217 -0.6561432 1.2679443 -1.3122864 1.9019165 -1.9684296c1.3735962 -1.6768188 3.0377808 -3.4629822 4.9925537 -5.3585052c1.9547424 -1.8955383 3.988739 -3.6087952 6.1019897 -5.139801l0.95095825 -1.0935669zm271.18243 -0.7655029c2.1132812 2.2600555 4.0151978 4.684143 5.7057495 7.2722626c1.6906128 2.5881195 3.6981812 5.012207 6.022766 7.2722626c0 0.7290497 0.052856445 1.2575989 0.1585083 1.5856781c0.105651855 0.32806396 0.42266846 0.7837219 0.95098877 1.3669586c-0.10571289 1.0206757 -0.5019531 1.7861786 -1.1887207 2.2965088c-0.6868286 0.5103302 -1.2415161 1.1664734 -1.6641846 1.9684296c-3.4868774 1.2393799 -6.8152466 2.4605408 -9.985107 3.6634674c-3.1698608 1.2029419 -6.973694 2.16893 -11.411499 2.8979797c-2.1132812 0 -4.411438 0.16403198 -6.89447 0.49209595c-2.4830933 0.32807922 -5.018982 0.5650177 -7.607727 0.7108307c-1.0354614 0.05831909 -2.0582886 0.08747864 -3.0684204 0.08747864c-1.5151978 0 -3.001892 -0.06561279 -4.460022 -0.19683838c-2.4302368 -0.21871948 -4.543457 -0.8384094 -6.3397217 -1.8590698c0.105651855 -1.7497253 0.5811157 -3.280716 1.4264526 -4.5930176c0.8452759 -1.3122864 1.84906 -2.5516663 3.0113525 -3.7181396c1.1622925 -1.1664734 2.3510132 -2.3147278 3.566101 -3.4447632c1.2151489 -1.1300201 2.2453613 -2.3876343 3.0906372 -3.7728271c0.42266846 -0.11663818 0.710022 -0.17497253 0.8621826 -0.17497253c0.038085938 0 0.06762695 0.0036468506 0.08874512 0.010940552c0.0211792 0.007293701 0.04864502 0.010940552 0.082458496 0.010940552c0.1352539 0 0.37194824 -0.05833435 0.710022 -0.17497253c2.4302368 -2.1142426 5.17749 -3.9733124 8.241699 -5.5772247c3.064209 -1.6039124 6.128418 -3.2442627 9.192627 -4.9210815c0.5282593 0.29162598 1.1358643 0.52856445 1.8226318 0.7108307c0.6868286 0.18225098 1.347229 0.29161072 1.9812012 0.32806396c0.07922363 0.004562378 0.15765381 0.0068359375 0.23522949 0.0068359375c0.5432129 0 1.0458984 -0.1116333 1.5081787 -0.3348999c0.5283203 -0.25517273 0.8981323 -0.67437744 1.109436 -1.2576141c0.3803711 0.26245117 0.74176025 0.39369202 1.0841064 0.39369202c0.22821045 0 0.44799805 -0.05833435 0.6593628 -0.17497253c0.5283203 -0.29162598 0.8981323 -0.58325195 1.109436 -0.8748627zm-451.86505 -23.293114c-5.3887787 3.572342 -9.773758 6.780159 -13.154953 9.623444c-3.3812103 2.8432922 -6.445404 5.650131 -9.192627 8.420517c-2.747223 2.7703857 -5.44162 5.668358 -8.083176 8.693901c-2.6415558 3.0255585 -5.917099 6.4703064 -9.826599 10.334274c-0.63397217 -1.3122864 -1.0566254 -2.8797455 -1.2679443 -4.702362c-0.21133423 -1.8226318 -0.4226532 -3.736374 -0.63397217 -5.741272c-0.21133423 -2.0048828 -0.47547913 -4.046219 -0.79248047 -6.1240005c-0.31698608 -2.0777893 -0.8717041 -4.046219 -1.6641693 -5.9052963c-0.79248047 -1.8590775 -1.8490906 -3.5358887 -3.169876 -5.0304337c-1.3207855 -1.4945526 -3.090622 -2.7157135 -5.30954 -3.663475c0.31698608 -1.020668 -0.21131897 -2.1142426 -1.5849304 -3.280716c-1.3736115 -1.166481 -3.222702 -1.8226242 -5.5472717 -1.9684372c-0.95095825 0.6561508 -1.9811707 1.2576141 -3.090622 1.8043976c-1.1094513 0.5467911 -1.9811707 1.2576141 -2.6151428 2.1324692c-0.5283203 0.8019562 -0.7924652 1.9137497 -0.7924652 3.3353958c0 1.4216461 0.105651855 2.9891052 0.31698608 4.7023697c0.21131897 1.7132645 0.44906616 3.4994278 0.71321106 5.3585052c0.26416016 1.8590775 0.39624023 3.5905685 0.39624023 5.1944733c0 1.6768188 -0.07925415 3.444748 -0.23774719 5.303833c-0.15849304 1.8590698 -0.026412964 3.6270142 0.39624023 5.303833c0.21131897 0.8019409 0.5547333 1.4945374 1.0302124 2.0777893c0.47547913 0.5832367 0.66038513 1.2393799 0.554718 1.9684296c-0.105651855 1.4580994 0.026412964 3.0437775 0.39624023 4.7570343c0.369812 1.7132721 0.8188782 3.4629822 1.3471985 5.249161c0.52830505 1.7861633 1.1094513 3.5541077 1.7434235 5.3038177c0.63397217 1.7497253 1.1094513 3.390091 1.4264374 4.9210815c0.7396393 0.072906494 1.4264526 0.7290497 2.0604248 1.9684296c0.63397217 1.2393951 0.7924652 2.478775 0.47547913 3.718155c1.3736115 0.21871948 2.4566498 0.7837219 3.249115 1.6950378c0.7924652 0.9113159 1.7698364 1.6585846 2.932129 2.2418213c1.6678467 0.80981445 3.3988953 1.2147064 5.193115 1.2147064c1.2748413 0 2.5815735 -0.20440674 3.9202576 -0.6132355c3.222702 -0.9842224 5.626526 -2.9344177 7.2114563 -5.8506165c-0.105651855 -0.94776917 -0.026412964 -1.6585846 0.23774719 -2.1324615c0.26416016 -0.4738922 0.23773193 -1.1847076 -0.07925415 -2.1324768c0.9509735 -0.5832367 1.9283447 -1.2576141 2.932129 -2.0231018c1.0037994 -0.7655029 1.9283447 -1.5674591 2.7736511 -2.4058685c0.84529114 -0.8384094 1.5585175 -1.7132568 2.1396484 -2.6245728c0.58114624 -0.9113159 0.9245453 -1.8773041 1.0302124 -2.8979645c0.4226532 0 0.76605225 -0.10935974 1.0302124 -0.32807922c0.26416016 -0.21871948 0.5018921 -0.45565796 0.7132263 -0.7108154c0.21131897 -0.25517273 0.4490509 -0.4921112 0.71321106 -0.7108307c0.26416016 -0.21871948 0.66038513 -0.32806396 1.1887054 -0.32806396c1.9019165 -2.9891052 4.1736603 -5.8506165 6.815216 -8.584549c2.641571 -2.7339325 5.415207 -5.3402863 8.320923 -7.8190613c2.9057007 -2.4787598 5.8114166 -4.884613 8.717133 -7.217575c2.905716 -2.3329544 5.5737 -4.59301 8.0039215 -6.7801514c-0.105651855 -1.166481 0.23774719 -2.1689224 1.0302124 -3.0073318c0.7924652 -0.8384018 1.3471985 -1.7679443 1.6641846 -2.7886124l0 0c-0.26416016 0.072906494 -0.46228027 0.10935974 -0.5943451 0.10935974c-0.13208008 0 -0.19812012 -0.036453247 -0.19812012 -0.10935974c0 -0.14580536 0.026412964 -0.38274384 0.07923889 -0.71082306c0.052841187 -0.3280716 0.13208008 -0.6743698 0.23774719 -1.038887c0.105667114 -0.36452484 0 -0.6561508 -0.31698608 -0.8748627c-0.63397217 -0.94776154 -1.0830383 -1.6768112 -1.3471985 -2.187149c-0.26416016 -0.5103302 -0.47547913 -0.9295349 -0.63397217 -1.2576065c-0.15849304 -0.3280716 -0.34339905 -0.6561432 -0.5547333 -0.9842148c-0.21131897 -0.3280716 -0.52830505 -0.85663605 -0.95095825 -1.5856781c-0.72454834 0.08332062 -1.3628235 0.12497711 -1.914856 0.12497711c-0.41401672 0 -0.77952576 -0.02342987 -1.0965271 -0.07030487c-0.739624 -0.10935211 -1.3735962 -0.23693848 -1.9019165 -0.38275146c-0.52830505 -0.14580536 -1.1358643 -0.3280716 -1.8226776 -0.54678345c-0.6867981 -0.21871185 -1.5585175 -0.36452484 -2.6151428 -0.43743134zm182.10909 0.43743134l-1.5849304 1.5310059c-2.324585 2.405861 -4.5963135 4.4654236 -6.8152466 6.178688c-2.2189026 1.7132645 -4.807617 3.0437775 -7.7661743 3.991539l-2.377411 -0.21871185c-0.5282898 0 -1.0037842 0.05467987 -1.4264221 0.16403198c-0.42266846 0.10935974 -0.79248047 0.20049286 -1.1094666 0.27339172l-2.5358887 0.7655029c-1.3736267 1.2393875 -2.509491 2.4423141 -3.4076233 3.6087952c-0.8981323 1.1664734 -1.7698364 2.3694077 -2.6151428 3.6087875c-0.739624 1.020668 -1.4792786 2.023117 -2.2189026 3.0073242c-0.739624 0.9842224 -1.6906128 2.0960236 -2.8528748 3.3354034c-0.21133423 0.3645172 -0.31698608 0.69259644 -0.31698608 0.98420715c0 0.29162598 0.052825928 0.5467987 0.15847778 0.7655029c-0.8453064 1.1664886 -1.6641846 2.332962 -2.4566345 3.4994354c-0.79248047 1.1664886 -1.6113586 2.332962 -2.456665 3.4994354c-2.5358887 3.572342 -4.9925537 7.0717773 -7.369934 10.498306c-2.377411 3.426529 -4.6227417 6.998871 -6.7359924 10.7170105l-0.15847778 1.8590851l-1.7434387 0.98420715l2.0604248 1.3122864c0.21130371 0.14581299 0.3433838 0.36453247 0.39620972 0.6561432c0.052856445 0.29162598 0.18493652 0.6561432 0.39624023 1.0935822c0.10568237 0.3645172 0.21133423 0.7655029 0.31698608 1.2029266c0.10568237 0.4374237 0.63397217 1.0935669 1.5849304 1.9684296c0.8453064 0.36453247 1.5849609 0.74728394 2.218933 1.1482544c0.63397217 0.40097046 1.5321045 0.9295349 2.6943665 1.5856781l1.5849609 0.10935974c0.63397217 0 1.1886902 -0.036453247 1.6641846 -0.10935974c0.47546387 -0.072906494 1.294342 -0.18226624 2.4566345 -0.32806396l1.9019165 -0.21871948l0.47549438 -1.2029266c0.21130371 -0.072906494 0.5018921 -0.16403198 0.8717041 -0.27339172c0.369812 -0.10935974 0.6604004 -0.23693848 0.8717041 -0.38275146c0.6340027 -0.21871948 1.2679749 -0.45565796 1.901947 -0.7108307c0.63397217 -0.25515747 1.2151184 -0.6014557 1.7434082 -1.0388947l0.63397217 -1.2029266c-0.105651855 -0.8748627 0.026428223 -1.7679443 0.39624023 -2.6792603c0.369812 -0.91130066 0.8188782 -1.8408356 1.3471985 -2.7886047c0.31698608 -0.5832367 0.63397217 -1.2029266 0.95095825 -1.8590698c0.31698608 -0.6561432 0.58114624 -1.3122864 0.79248047 -1.9684296c0.21130371 -0.14581299 0.42263794 -0.27340698 0.63397217 -0.38275146c0.21133423 -0.10935974 0.42263794 -0.23695374 0.63397217 -0.38275146l0.79244995 -1.8590851c0 -0.14579773 0.052856445 -0.34629822 0.1585083 -0.6014557c0.105651855 -0.25517273 0.26416016 -0.4192047 0.47549438 -0.4921112l1.5849304 -0.21871948l0.63397217 -1.0935669c0.31698608 -0.94776917 0.79244995 -1.8590698 1.4264221 -2.7339325c0.10568237 0.6561432 0.42266846 1.3122864 0.95098877 1.9684296c-0.3170166 0.94776917 -0.18493652 1.7314911 0.39620972 2.351181c0.58114624 0.61968994 1.1358948 1.1118011 1.6641846 1.4763184c0.21133423 0.14581299 0.42266846 0.27339172 0.63397217 0.38275146c0.21133423 0.10935974 0.42266846 0.5650177 0.63397217 1.3669739l1.5849609 0.21871948c0.8452759 0.072891235 1.6377563 0.12757874 2.3773804 0.16403198c0.73965454 0.036453247 1.5321045 0.05467224 2.377411 0.05467224c2.324585 0 4.4642334 -0.12757874 6.418976 -0.38275146c1.954773 -0.25515747 3.8831177 -0.56500244 5.785034 -0.9295349c1.4792786 -0.29161072 2.932129 -0.54678345 4.358551 -0.7655029c0.61135864 -0.09373474 1.2857666 -0.14059448 2.0232239 -0.14059448c0.9833069 0 2.0787659 0.08331299 3.286316 0.24995422c0.21133423 1.8955231 -0.13208008 3.2442627 -1.0302124 4.046219c-0.8981323 0.8019562 -2.6679688 1.4580994 -5.3095093 1.9684296l-4.2793274 0.7655029l2.6943665 2.0777893c0.21133423 0.21871948 0.47549438 0.43743896 0.79248047 0.6561432c0.31698608 0.21871948 0.63397217 0.43743896 0.95095825 0.6561432c0.95095825 0.5832367 1.5849304 1.0388947 1.9019165 1.3669739c0.31698608 0.32806396 0.369812 0.7837219 0.1585083 1.3669586l-0.63397217 1.4216461l1.9019165 0.54678345c0.21133423 0.072906494 0.44906616 0.16404724 0.7132263 0.27340698c0.26416016 0.10934448 0.554718 0.23693848 0.8717041 0.38275146c0.5283203 0.21870422 1.0302124 0.4556427 1.5057068 0.7108154c0.47546387 0.25517273 1.4000244 0.4921112 2.7736206 0.7108154c2.2189026 -0.072891235 4.3321533 -0.4374237 6.339752 -1.0935669c2.0075684 -0.6561432 3.8302612 -1.4763184 5.4680176 -2.4605408c1.6377563 -0.98420715 3.064209 -2.1142426 4.2793274 -3.3900757c1.2151184 -1.2758331 2.1396484 -2.5334473 2.7736206 -3.7728271l0.31698608 -0.4374237c0.21133423 -1.3851929 0.21133423 -2.7339325 0 -4.046219c-0.21130371 -1.3123016 -0.47546387 -2.5881348 -0.79244995 -3.8275146c-0.21133423 -0.4374237 -0.3434143 -0.8566284 -0.39624023 -1.2576141c-0.052825928 -0.40097046 -0.13208008 -0.8201752 -0.23773193 -1.2575989c2.4302368 -0.8019562 4.622711 -1.8043976 6.577484 -3.0073242c1.9547424 -1.2029419 3.4604492 -2.4605408 4.5170593 -3.7728271l1.2679443 -1.6403656l-2.377411 -0.6561432c-0.42263794 -0.14581299 -0.8452759 -0.36453247 -1.2679443 -0.6561432c-0.5282898 -0.36453247 -1.109436 -0.7108307 -1.7434082 -1.0388947c-0.6340027 -0.32807922 -1.6377869 -0.52856445 -3.011383 -0.60147095c-0.95095825 -0.3645172 -1.4792786 -0.7290497 -1.5849304 -1.0935669l-0.63397217 -1.0935822l-1.7434387 0.10935974c-0.73965454 0.072906494 -1.4000244 0.14581299 -1.9811707 0.21871948c-0.58114624 0.072906494 -1.1358643 0.18226624 -1.6641846 0.32806396c-0.21133423 -0.072891235 -0.739624 -0.10934448 -1.5849304 -0.10934448c-0.8453064 -1.4580994 -1.5321045 -3.0073242 -2.0604248 -4.64769c-0.5283203 -1.6403656 -1.0566101 -3.3354034 -1.5849304 -5.0851135c-0.31698608 -1.2393799 -0.6604004 -2.4605408 -1.0302124 -3.663475c-0.369812 -1.2029266 -0.8188782 -2.4240875 -1.3471985 -3.6634674c-0.105651855 -1.5310059 -0.29055786 -2.9161987 -0.554718 -4.1555786c-0.26416016 -1.2393875 -0.554718 -2.4787674 -0.8717041 -3.7181473c-0.21133423 -0.5832443 -0.36984253 -1.166481 -0.47549438 -1.7497177c-0.105651855 -0.5832443 -0.47549438 -1.4580994 -1.1094666 -2.6245804c-1.0566101 -0.72904205 -2.4302368 -1.2758331 -4.120819 -1.640358c-1.6906128 -0.36452484 -3.486847 -0.69259644 -5.388794 -0.9842148c-1.0566101 -0.21871185 -2.0603943 -0.4192047 -3.0113525 -0.6014633c-0.95095825 -0.18226624 -1.6906128 -0.38275146 -2.218933 -0.6014633l-2.0603943 -0.8748627zm269.9145 -1.9684296c-1.3735962 0.5832367 -2.4038086 1.1300201 -3.0906372 1.640358c-0.6868286 0.5103378 -1.4528809 1.2758331 -2.2981567 2.2965012c-1.1622925 0.14581299 -2.0339966 0.21871948 -2.6151123 0.21871948c-0.58117676 0 -1.347229 0.036453247 -2.2981567 0.10935211c-1.2679443 1.0935745 -2.3510132 2.023117 -3.2491455 2.7886124c-0.8981323 0.7655029 -2.2981567 1.4398727 -4.2000732 2.0231094l0 1.2029343c-0.8452759 0.14580536 -1.5849609 0.38275146 -2.218933 0.71082306c-0.63397217 0.3280716 -1.2415161 0.6743698 -1.8226318 1.0388947c-0.58117676 0.36452484 -1.1887207 0.69259644 -1.8226929 0.9842148c-0.63397217 0.29161835 -1.4264526 0.5103302 -2.3773804 0.6561432c-0.8453369 1.020668 -1.9812012 1.8043976 -3.4076538 2.351181c-1.4264526 0.5467911 -2.5094604 1.3669662 -3.2490845 2.4605408c-0.5283203 0.072906494 -0.977417 0.2551651 -1.347229 0.5467911c-0.369812 0.29161835 -0.7131958 0.6014633 -1.0302124 0.9295349c-0.31695557 0.3280716 -0.6604004 0.5832367 -1.0302124 0.7655029c-0.20544434 0.101249695 -0.45166016 0.15187836 -0.73864746 0.15187836c-0.22955322 0 -0.4852295 -0.03240204 -0.7670288 -0.097206116c-2.8528442 2.332962 -5.8114014 4.7205887 -8.87561 7.1629105c-3.064209 2.4423065 -5.785034 5.1033325 -8.162415 7.983078c-2.3774414 2.8797455 -4.2000732 6.0146484 -5.4680176 9.404739c-1.2680054 3.3900757 -1.4793091 7.162903 -0.63397217 11.318481c1.1622314 1.9684296 2.6679688 3.8457336 4.517029 5.631897c1.8491211 1.7861633 4.0151978 3.3171692 6.49823 4.5930023c2.4830933 1.2758331 5.3359375 2.2053833 8.558655 2.78862c1.9832153 0.35891724 4.076416 0.53837585 6.279724 0.53837585c1.3770142 0 2.797058 -0.07009888 4.260132 -0.21031189c2.7931519 0.4057312 5.343384 0.6085968 7.650818 0.6085968c1.0094604 0 1.9724731 -0.03883362 2.888977 -0.116485596c3.0113525 -0.25517273 6.1019897 -0.7837219 9.271851 -1.5856781c0.3623047 0.020828247 0.7418213 0.03125 1.1385498 0.03125c0.9920044 0 2.0917358 -0.065093994 3.2993164 -0.19528198c1.6905518 -0.18226624 3.3811646 -0.4738922 5.0717773 -0.8748627c1.6906128 -0.40098572 3.3283691 -0.8384094 4.913269 -1.3122864c1.5849609 -0.4738922 2.9585571 -0.9295349 4.1208496 -1.3669739c1.479248 -0.21870422 2.932129 -0.4374237 4.3585815 -0.6561432c1.4264526 -0.21871948 2.7208252 -0.5832367 3.8830566 -1.0935669c1.7962646 -1.0206757 3.7510376 -1.8955231 5.864258 -2.6245728c2.1132812 -0.7290497 3.909546 -1.7497253 5.388794 -3.0620117c1.1622925 -0.4374237 2.1660767 -1.1118011 3.0114136 -2.023117c0.8452759 -0.91130066 1.5321045 -1.9319763 2.0604248 -3.0619965c0.5282593 -1.1300201 0.8980713 -2.2965088 1.109436 -3.4994354c0.21130371 -1.2029266 0.21130371 -2.3147278 0 -3.3354034c-0.21136475 -0.8019409 -0.5283203 -1.6038971 -0.95098877 -2.4058533c-0.42260742 -0.8019562 -0.8717041 -1.5856781 -1.347168 -2.351181c-0.47546387 -0.7655029 -0.8717041 -1.5492401 -1.1887207 -2.351181c-0.31695557 -0.8019562 -0.42266846 -1.6403656 -0.31695557 -2.5152283c-2.5359497 -2.8432922 -4.807678 -5.8506165 -6.8152466 -9.021973c-2.0075684 -3.1713562 -4.279297 -6.178688 -6.8152466 -9.02198c0.42266846 -0.29161835 0.58117676 -0.7655029 0.4755249 -1.4216461c-0.105651855 -0.36452484 -0.42266846 -0.5650101 -0.95098877 -0.6014633c-0.5283203 -0.036453247 -0.739624 -0.30984497 -0.63397217 -0.8201828c1.0566406 -0.36452484 1.717041 -0.9295349 1.9812012 -1.6950378c0.26416016 -0.7655029 0.66033936 -1.5127716 1.1886597 -2.2418213c-0.42260742 -0.94776917 -0.8452759 -1.5856857 -1.2679443 -1.9137573c-0.42260742 -0.3280716 -0.79248047 -1.0024414 -1.109436 -2.0231094c-0.14086914 -0.024299622 -0.26708984 -0.036453247 -0.37860107 -0.036453247c-0.2230835 0 -0.38745117 0.048606873 -0.49310303 0.14581299c-0.105651855 0.097206116 -0.27008057 0.14580536 -0.49310303 0.14580536c-0.11151123 0 -0.23773193 -0.012145996 -0.37860107 -0.036445618c-0.21136475 -0.6561508 -0.607605 -1.166481 -1.1887207 -1.5310059c-0.58117676 -0.36452484 -1.1887207 -0.71082306 -1.8226929 -1.0388947c-0.63397217 -0.3280716 -1.2150879 -0.69259644 -1.7434082 -1.0935745c-0.5283203 -0.4009781 -0.8453369 -0.96598816 -0.95098877 -1.6950378c-1.1622925 -0.8019562 -2.5094604 -1.2758331 -4.041565 -1.4216461c-1.5321045 -0.14580536 -2.932129 -0.4374237 -4.2000732 -0.87485504zm-411.13223 0.87485504c-3.381195 0.8748627 -5.943512 2.0595627 -7.6869507 3.5541153c-1.7434235 1.4945526 -3.566101 3.371849 -5.4680176 5.6319046c-0.63397217 0.72904205 -1.2943726 1.4763184 -1.9811707 2.2418213c-0.68681335 0.7655029 -1.4528656 1.5856781 -2.2981567 2.4605408c-1.0566254 1.0935745 -2.3509827 2.6974792 -3.8830872 4.811722c-1.5321045 2.1142426 -3.1434631 4.428978 -4.8340607 6.944191c-1.6905975 2.515213 -3.381195 5.1033325 -5.0717926 7.764374c-1.6905975 2.661026 -3.196289 5.0851135 -4.5170593 7.2722626c-1.3207855 2.1871338 -2.4038239 3.9733124 -3.249115 5.3585052c-0.8453064 1.3851929 -1.2679596 2.1142426 -1.2679596 2.187149c-0.95095825 1.5309906 -1.4528503 3.3353882 -1.5056763 5.4131775c-0.052841187 2.0777893 0.21131897 4.1373596 0.7924652 6.1786957c0.581131 2.041336 1.4264374 3.9550781 2.5358887 5.7412567c1.1094513 1.7861633 2.350998 3.1895905 3.724594 4.210251c1.9019318 0.21871948 3.2755432 0.32807922 4.1208344 0.32807922c1.7962646 0 3.222702 -0.38275146 4.2793274 -1.1482544c1.0566254 -0.7655029 2.4830627 -2.4240875 4.2793274 -4.975754c0.21131897 -0.43743896 0.31698608 -0.9113159 0.31698608 -1.4216461c0.105667114 -0.36453247 0.184906 -0.7290497 0.23774719 -1.0935822c0.052825928 -0.3645172 0.184906 -0.7290497 0.39622498 -1.0935669c0.31698608 -0.36453247 0.7132263 -0.7108307 1.1887054 -1.0388947c0.47547913 -0.32807922 0.9245453 -0.67437744 1.3471985 -1.0388947c0.7396393 -0.36453247 1.2151184 -0.8748627 1.4264374 -1.5310059c-0.4226532 -0.5103302 -0.52830505 -1.0571136 -0.31698608 -1.6403503c0.52830505 -1.0935822 1.3207855 -2.0777893 2.3773956 -2.952652c1.0566254 -0.8748627 2.0604248 -1.6403656 3.011383 -2.2965088c-0.105667114 -0.8748627 0.07925415 -1.9137573 0.5547333 -3.116684c0.47547913 -1.2029266 1.0301971 -2.3876343 1.6641846 -3.5541077c0.63397217 -1.1664734 1.2679443 -2.205368 1.9019165 -3.116684c0.63397217 -0.9113159 1.1094513 -1.5127716 1.4264374 -1.8043976l1.2679443 -1.4216461l1.2679596 1.6403656c4.437805 6.1969147 11.094543 9.295364 19.970184 9.295364c3.486847 0 7.052948 -0.40097046 10.698303 -1.2029266c3.6453552 -0.8019562 7.2378845 -1.8408508 10.777557 -3.116684c3.5397034 -1.2758331 6.947296 -2.661026 10.222839 -4.1555786c3.2755432 -1.4945526 6.2869263 -2.9344177 9.034149 -4.3196106c0.21130371 -0.43743896 0.5018921 -0.69259644 0.8717041 -0.7655029c0.369812 -0.072906494 0.76605225 -0.10935974 1.1886902 -0.10935974l1.4264526 1.0935669c0 0.65615845 -0.26416016 1.0935822 -0.79248047 1.3123016c-3.381195 8.092438 -4.992523 14.763229 -4.8340454 20.01239c0.1585083 5.2491455 2.2981567 8.930847 6.418976 11.045074c1.1622925 0 2.192505 -0.14579773 3.0906372 -0.4374237c0.8981323 -0.29161072 1.8755188 -0.61968994 2.932129 -0.98420715c0.8453064 -0.29162598 1.6377563 -0.5650177 2.377411 -0.8201904c0.739624 -0.25515747 1.5849304 -0.4921112 2.5358887 -0.7108154c0.21133423 -0.36453247 0.44906616 -0.7290497 0.7132263 -1.0935822c0.26416016 -0.3645172 0.5018921 -0.7290497 0.7132263 -1.0935669c2.1132507 -3.3536224 4.1472473 -6.9441833 6.1019897 -10.771698c1.9547424 -3.8274994 2.7207947 -8.074219 2.2981567 -12.740128c0.63397217 -0.94776917 1.1358643 -1.8226166 1.5057068 -2.6245728c0.369812 -0.8019562 0.6603699 -1.6585846 0.8717041 -2.5699005c0.21133423 -0.9113159 0.29055786 -1.8955231 0.23773193 -2.952652c-0.052825928 -1.0571136 -0.13208008 -2.533432 -0.23773193 -4.4289703c0.63397217 -0.7290497 1.1886902 -1.7132568 1.6641846 -2.9526367c0.47546387 -1.2393875 0.60754395 -2.3694153 0.39624023 -3.3900833l-0.47549438 -2.0777893l3.011383 0.21871948c-0.21133423 -0.29162598 -0.369812 -0.5467911 -0.47549438 -0.7655029c-0.105651855 -0.21871948 -0.21130371 -0.43743134 -0.31698608 -0.6561432c-0.42263794 -0.6561432 -0.76605225 -1.2940674 -1.0302124 -1.9137573c-0.26412964 -0.61968994 -0.29055786 -1.2940598 -0.07922363 -2.0231094c-1.901947 -0.87485504 -3.2227173 -2.1506958 -3.9623413 -3.827507c-0.42266846 -0.5832367 -1.4264526 -1.1664734 -3.011383 -1.7497177c-0.21133423 -0.072906494 -0.369812 -0.14580536 -0.47549438 -0.21871185c-0.105651855 -0.072906494 -0.369812 -0.21871185 -0.79244995 -0.43743134c-0.8453064 -0.5103302 -1.2679443 -1.1300278 -1.2679443 -1.8590698c-0.21133423 -0.072906494 -0.44906616 -0.14581299 -0.7132263 -0.21871948c-0.26416016 -0.072906494 -0.554718 -0.1822586 -0.8717041 -0.3280716c-1.1622925 -0.36452484 -2.377411 -0.7290497 -3.6453552 -1.0935745c-1.2679749 -0.36452484 -2.4830627 -0.54678345 -3.6453552 -0.54678345c-1.1622925 0 -2.271759 0.21871185 -3.3283691 0.6561432c-1.7962646 3.062004 -4.1736755 5.613678 -7.132202 7.655014c-2.9585571 2.041336 -6.022766 3.9368591 -9.192627 5.686577c-1.6906128 0.94776917 -3.3019714 1.8955307 -4.8340454 2.8432922c-1.5321045 0.94776154 -3.2491455 2.041336 -5.151062 3.280716c-0.8453064 0.072906494 -1.6905823 0.27339935 -2.5358887 0.6014633c-0.8453064 0.32807922 -1.6906128 0.7108307 -2.5358887 1.1482544c-1.2679443 0.5832367 -2.6151428 1.1482544 -4.0415955 1.6950378c-1.4264526 0.54678345 -2.9849548 0.8201904 -4.6755676 0.8201904c-1.479248 0 -3.1698608 -0.51034546 -5.0717773 -1.5310059c-0.21133423 -0.6561432 -0.31698608 -1.2576141 -0.31698608 -1.8043976c0 -0.54678345 0.052825928 -1.0753479 0.15847778 -1.5856857c0.31698608 -1.1664734 0.21133423 -2.0777893 -0.31698608 -2.7339325l-0.15847778 -1.0935669c0.5282898 -0.94776917 0.76605225 -1.8590775 0.7132263 -2.7339401c-0.052856445 -0.87485504 -0.31698608 -1.7314911 -0.79248047 -2.569893c-0.47549438 -0.8384094 -1.1094666 -1.6768112 -1.9019165 -2.5152206c-0.79248047 -0.8384018 -1.6113586 -1.6950378 -2.456665 -2.569893c-0.63397217 -0.8019562 -1.3207703 -1.4945526 -2.0603943 -2.0777893c-0.95098877 -0.14581299 -1.8226929 -0.30984497 -2.6151428 -0.4921112c-0.79248047 -0.1822586 -1.769867 -0.38275146 -2.932129 -0.6014633c-0.8453064 0 -1.4792786 -0.36452484 -1.901947 -1.0935745l-0.31698608 -1.2029266c-1.0566101 -0.8748627 -2.747223 -1.6403656 -5.0717773 -2.2965088zm259.9294 0.5467911c-0.63397217 0.87485504 -1.1622925 1.8408432 -1.5849609 2.8979645c-0.42266846 1.0571213 -0.8452759 2.1142426 -1.2679443 3.1713638c-0.42266846 1.0571213 -0.8981323 2.0595627 -1.4264526 3.0073242c-0.5283203 0.94776917 -1.2679443 1.7497177 -2.218872 2.405861c-0.8453369 3.572342 -1.6377869 7.0717773 -2.3774414 10.498306c-0.739624 3.426529 -1.8226624 6.6343384 -3.249115 9.623444c-1.4264221 2.9891052 -3.2755127 5.6865845 -5.5472717 8.092438c-2.2717285 2.4058685 -5.30954 4.374298 -9.113373 5.905304c-0.63397217 -1.8955383 -1.0037842 -3.736374 -1.1094666 -5.5225525c-0.105651855 -1.7861633 -0.13204956 -3.4994354 -0.07922363 -5.139786c0.052825928 -1.6403656 0.13208008 -3.262497 0.23773193 -4.8664093c0.105651855 -1.6039124 0 -3.2078094 -0.31698608 -4.811722l0 0c0.12680054 0.029159546 0.24090576 0.04374695 0.3423462 0.04374695c0.15216064 0 0.27578735 -0.032806396 0.37088013 -0.09841919c0.15847778 -0.10935974 0.29055786 -0.21871948 0.39624023 -0.32807922c0.105651855 -0.10935974 0.23773193 -0.21870422 0.39620972 -0.32806396c0.1585083 -0.10935974 0.39624023 -0.16404724 0.7132263 -0.16404724c-0.31698608 -0.7290497 -0.369812 -1.3305054 -0.15847778 -1.8043823c0.21130371 -0.4738922 0.47546387 -0.9113159 0.79244995 -1.312294c0.31698608 -0.4009781 0.55474854 -0.85663605 0.7132263 -1.3669662c0.1585083 -0.5103378 0.026428223 -1.166481 -0.39624023 -1.9684296l0 0c0.26416016 0.072898865 0.48208618 0.10935211 0.6538086 0.10935211c0.1716919 0 0.29714966 -0.036453247 0.3764038 -0.10935211c0.105651855 -0.097206116 0.27001953 -0.14581299 0.49310303 -0.14581299c0.11151123 0 0.23773193 0.0121536255 0.37860107 0.036453247c-0.31698608 -0.43743134 -0.47546387 -0.78372955 -0.47546387 -1.0388947c0 -0.2551651 0.026397705 -0.45565796 0.07925415 -0.6014633c0.052825928 -0.14581299 0.052825928 -0.29162598 0 -0.43743134c-0.052856445 -0.14581299 -0.29058838 -0.4009781 -0.7132263 -0.7655029c0.14086914 -0.14580536 0.29348755 -0.21871185 0.45785522 -0.21871185c0.08218384 0 0.16729736 0.018226624 0.2553711 0.05467987c0.052825928 0.021865845 0.10458374 0.032806396 0.15530396 0.032806396c0.20288086 0 0.38885498 -0.17497253 0.55789185 -0.5249176c-0.42263794 -1.7497177 -1.3207703 -3.3353958 -2.6943665 -4.757042c-1.3736267 -1.4216461 -3.0378113 -2.6792526 -4.9925537 -3.7728271c-1.9547424 -1.0935745 -4.120819 -2.0595627 -6.49823 -2.897972c-2.377411 -0.8384018 -4.7812195 -1.5856781 -7.2114563 -2.2418213c-5.494446 8.384056 -11.305878 16.87748 -17.434296 25.480255c-6.128418 8.602768 -11.781342 16.69522 -16.958801 24.277328c0.5283203 0.5103302 0.8981323 1.1482391 1.109436 1.9137421c0.21133423 0.7655029 0.1585083 1.5492401 -0.15847778 2.351181c0.739624 1.0206757 1.5056763 2.2236023 2.2981567 3.6087952c0.79244995 1.3851929 1.6905823 2.7521667 2.694397 4.1009064c1.0037842 1.3487396 2.1660767 2.5698853 3.486847 3.6634674c1.3207703 1.0935669 2.9849548 1.8590698 4.9925537 2.2965088c0.8453064 -0.072906494 1.5585022 -0.23695374 2.1396484 -0.4921112c0.369812 -0.16238403 0.8572998 -0.24357605 1.4624634 -0.24357605c0.3458252 0 0.7300415 0.026519775 1.1526794 0.07954407c-0.105651855 -0.43743896 -0.26416016 -0.69259644 -0.47546387 -0.7655029c-0.21133423 -0.072906494 -0.1585083 -0.25517273 0.15847778 -0.5467987c0.21133423 0.009124756 0.4143982 0.013671875 0.6092224 0.013671875c1.3637085 0 2.3229065 -0.2232666 2.877655 -0.66981506c0.63397217 -0.5103302 1.0830383 -1.1300201 1.347168 -1.8590698c0.26416016 -0.7290497 0.5019226 -1.4945526 0.7132263 -2.2965088c0.21133423 -0.8019409 0.73965454 -1.4216461 1.5849304 -1.8590698c-0.42263794 -0.7290497 -0.5282898 -1.3669586 -0.31698608 -1.9137573c0.21133423 -0.54678345 0.5283203 -1.0571136 0.95098877 -1.5309906c0.42263794 -0.4738922 0.8717041 -0.9295502 1.347168 -1.3669739c0.47549438 -0.4374237 0.76605225 -0.94776917 0.8717346 -1.5310059c0.739624 0 1.294342 -0.27339172 1.6641846 -0.8201752c0.369812 -0.54678345 0.739624 -1.1482544 1.109436 -1.8043976c0.369812 -0.6561432 0.76605225 -1.2940521 1.1887207 -1.9137573c0.42263794 -0.61968994 1.109436 -1.0024414 2.0603943 -1.1482391c2.1132507 3.9368591 4.834076 7.326935 8.162415 10.170227c3.3283691 2.8432922 7.1586304 5.3585052 11.490784 7.5456543c2.2758179 0.5608063 4.2233887 0.8412018 5.8427124 0.8412018c0.4857788 0 0.9420471 -0.025238037 1.3687439 -0.07569885c1.8490906 -0.21871948 3.4340515 -0.6561432 4.754822 -1.3122864c1.3207703 -0.6561432 2.562317 -1.3851929 3.7245789 -2.187149c1.1622925 -0.8019562 2.4830933 -1.4216461 3.9623413 -1.8590698c-0.21130371 -0.36453247 -0.29058838 -0.65615845 -0.23773193 -0.8748627c0.052856445 -0.21871948 0.1585083 -0.38275146 0.3170166 -0.4921112c0.15844727 -0.10935974 0.29052734 -0.23693848 0.3961792 -0.38275146c0.10571289 -0.14581299 0.10571289 -0.3645172 0 -0.6561432l0 0c0.63397217 0.072906494 1.0038452 0.18226624 1.1094971 0.32807922c0.035217285 0.048599243 0.088012695 0.072891235 0.1585083 0.072891235c0.14086914 0 0.35217285 -0.09719849 0.63397217 -0.29161072c1.0565796 -1.3122864 2.0603638 -2.6245728 3.0113525 -3.9368591c0.95092773 -1.3123016 2.2717285 -2.4423218 3.9623413 -3.390091c0.5283203 -1.5309906 1.2679443 -3.2442627 2.218933 -5.139786c0.95092773 -1.8955231 1.84906 -3.6817017 2.694336 -5.3585052c-0.105651855 -1.9684296 0 -3.7728271 0.3170166 -5.4131927c0.31695557 -1.6403656 0.7131958 -3.2260437 1.1887207 -4.7570343c0.47546387 -1.5310059 0.95092773 -3.080246 1.4263916 -4.64769c0.4755249 -1.5674591 0.87176514 -3.2989502 1.1887207 -5.1944733c0.95098877 -0.43743134 1.6906128 -0.9659958 2.218933 -1.5856857c0.5283203 -0.61968994 0.95092773 -1.2940598 1.2679443 -2.0231094c0.17456055 -0.40146637 0.34106445 -0.80293274 0.4996338 -1.2043991l0 0c0.122558594 0.28349304 0.22015381 0.5756073 0.29284668 0.8763275l1.4263916 1.3122864c0.42266846 0.072906494 1.2679443 0.69259644 2.5359497 1.8590775c0.95092773 0.36452484 1.84906 0.6014633 2.694336 0.71082306c0.8453369 0.10935211 1.6378174 0.16403198 2.3774414 0.16403198c0.21130371 0 0.47546387 -0.018226624 0.79248047 -0.05467987c0.31695557 -0.036445618 0.5811157 -0.05467224 0.79241943 -0.05467224l5.2302856 0c0.63397217 -0.21871948 1.4793091 -0.3280716 2.5359497 -0.3280716c0.21130371 0 0.44903564 0.018226624 0.7131958 0.05467224c0.26416016 0.036453247 0.55474854 0.05467987 0.8717041 0.05467987l1.5849609 0c1.3735962 0 2.6415405 -0.1822586 3.803833 -0.54678345c0.31695557 0.072906494 0.8452759 0.10935974 1.5848999 0.10935974c0.5283203 0 1.0566406 -0.018226624 1.5849609 -0.05467987c0.5283203 -0.036453247 1.109436 -0.09113312 1.7434082 -0.16403961c0.5283203 -0.072906494 1.0566406 -0.12757874 1.5849609 -0.16403198c0.5283203 -0.036453247 1.109436 -0.05467987 1.7434082 -0.05467987c-0.21130371 0.36452484 -0.44903564 0.78372955 -0.7131958 1.2576065c-0.26416016 0.47388458 -0.55474854 0.96598816 -0.8717041 1.476326c-0.5283203 0.80194855 -1.0302124 1.5856857 -1.5056763 2.3511887c-0.4755249 0.7654877 -1.0830688 1.7314758 -1.8226929 2.8979645l-1.4264526 1.0935669c-0.63397217 1.6039124 -1.3735962 3.1531372 -2.218933 4.64769c-0.8452759 1.4945526 -1.6905518 2.970871 -2.5358887 4.4289703c-1.479248 2.6974792 -2.9057007 5.504318 -4.279297 8.420517c-1.3735962 2.9161987 -1.954773 6.4885254 -1.7434692 10.7170105c0.42266846 0.43743896 0.76605225 0.94776917 1.0302124 1.5310059c0.26416016 0.5832367 0.5018921 1.2029266 0.71325684 1.8590698c0.21130371 0.8019562 0.5018921 1.6039124 0.8717041 2.4058685c0.369812 0.8019562 0.92456055 1.5310059 1.6641846 2.187149c0 0.072906494 0 0.5103302 0 1.3122864l1.4264526 0.54678345c0.8452759 0.29162598 1.9547119 0.6561432 3.3283691 1.0935669c0.42260742 0.43743896 0.8981323 0.7290497 1.4263916 0.8748627c0.5283203 0.14581299 1.2151489 0.32807922 2.0604248 0.54678345c0.105651855 0.21871948 0.42266846 0.51034546 0.95098877 0.8748627l1.9019165 0c3.803833 0 6.49823 -0.69259644 8.083191 -2.0777893c1.479248 -1.2393799 1.9547119 -2.9161987 1.4263916 -5.0304413l-1.4263916 -1.0935669c-0.8453369 -0.29162598 -1.4793091 -0.54678345 -1.9019165 -0.7655029c-0.3170166 -0.072906494 -0.79248047 -0.25517273 -1.4264526 -0.54678345c-0.105651855 -0.36453247 -0.29058838 -0.6561432 -0.55474854 -0.8748627c-0.26416016 -0.21871948 -0.55474854 -0.47387695 -0.8717041 -0.7655029c-0.105651855 -0.5103302 0 -1.2029266 0.31695557 -2.0777893c0.10571289 -0.3645172 0.21136475 -0.7472687 0.3170166 -1.1482544c0.105651855 -0.40097046 0.105651855 -0.7837219 0 -1.1482391c0.5283203 -0.21871948 0.79248047 -0.69259644 0.79248047 -1.4216461c0 -0.14581299 0.05279541 -0.38275146 0.15844727 -0.7108307c0.10571289 -0.32806396 0.26416016 -0.6743622 0.4755249 -1.0388947c0.63397217 -0.8019562 1.0037842 -1.6038971 1.109436 -2.4058533c0.42266846 -0.21871948 0.6868286 -0.45565796 0.79248047 -0.7108307c0.105651855 -0.25515747 0.47546387 -0.6014557 1.109436 -1.0388947l0.63397217 -1.3122864c0.3170166 -0.8748627 0.79248047 -1.9137573 1.4264526 -3.116684c0.63397217 -1.2029266 1.5849609 -2.351181 2.8529053 -3.444748c0.42260742 -1.2393951 0.97735596 -2.351181 1.6641846 -3.3354034c0.6867676 -0.9842224 1.5584717 -2.0595703 2.6151123 -3.2260437c0.63397217 -1.4580994 1.2943726 -2.825058 1.9812012 -4.100891c0.6867676 -1.2758484 1.4528198 -2.5334473 2.2981567 -3.7728271c0.8452759 -1.1664886 1.6377563 -2.3694153 2.3773804 -3.6087952c0.739624 -1.2393875 1.479248 -2.6610336 2.218933 -4.2649384c1.5848999 -0.072906494 3.3547363 -0.1822586 5.3095093 -0.3280716c1.954773 -0.14581299 3.9887695 -0.3280716 6.1019897 -0.54678345c2.9585571 -0.29162598 5.9699097 -0.5650177 9.034119 -0.8201828c3.064209 -0.2551651 5.9171143 -0.38275146 8.558655 -0.38275146c0.63397217 0 1.2415771 0.018226624 1.8226929 0.05467987c0.5811157 0.036453247 1.347168 0.05467987 2.2981567 0.05467987c0.5283203 -0.072906494 1.0037842 -0.16403961 1.4264526 -0.27339172c0.42266846 -0.10935974 0.8452759 -0.2369461 1.2679443 -0.38275146c0.5283203 -0.14581299 1.0566406 -0.27339172 1.5848999 -0.38275146c0.5283203 -0.10935974 1.1094971 -0.16403961 1.7434692 -0.16403961l1.5848999 0.10935974l1.4264526 -1.3122864c0.42266846 -0.14581299 1.0566406 -0.6561432 1.9019165 -1.5310059c0.3170166 -2.1142426 -0.15844727 -3.7181473 -1.4264526 -4.811722c-1.2679443 -1.0935745 -2.5358887 -2.041336 -3.803833 -2.8432922c-0.63397217 -0.3645172 -1.2415161 -0.72904205 -1.8226318 -1.0935669c-0.58117676 -0.36452484 -1.0302124 -0.7655029 -1.347229 -1.2029343l-1.5848999 -0.7655029c-1.1622925 -0.14580536 -2.4302368 -0.2551651 -3.803894 -0.3280716c-1.3735962 -0.072898865 -2.8000488 -0.10935211 -4.279297 -0.10935211c-3.3812256 0 -6.89447 0.14580536 -10.539856 0.4374237c-3.6453247 0.29162598 -7.264282 0.6196976 -10.8567505 0.9842224c-2.4302368 0.29161835 -4.8341064 0.5285568 -7.211487 0.7108154c-2.3773804 0.18226624 -4.7283936 0.34629822 -7.0529785 0.4921112c-0.5283203 -0.36452484 -1.1886597 -0.7472763 -1.9811401 -1.1482544c-0.67059326 -0.3392868 -1.7382812 -0.5089264 -3.203186 -0.5089264c-0.26635742 0 -0.5458374 0.0055999756 -0.8383789 0.016822815l-1.5849609 0.54678345c-0.42266846 0.5832443 -0.8452759 1.2029343 -1.2679443 1.8590775c-2.324585 0.14580536 -4.5698853 0.29161835 -6.735962 0.43743134c-2.1660767 0.14580536 -4.305786 0.29161835 -6.4190063 0.4374237c-3.6981812 0.21871948 -7.2907104 0.4192047 -10.777588 0.60147095c-3.4868164 0.1822586 -6.9208374 0.27339172 -10.302063 0.27339172l-4.437805 0l-2.0604248 -0.10935974l-0.47546387 1.640358c-0.21136475 0.21871948 -0.4755249 0.47388458 -0.79248047 0.7655029c-0.037109375 0.034118652 -0.07269287 0.070236206 -0.106933594 0.10836029l0 0c-0.62060547 -0.64527893 -1.2717896 -1.3010864 -1.9534912 -1.9674377c-1.5848999 -0.14580536 -2.9057007 -0.49210358 -3.9623413 -1.0388947c-1.0566406 -0.54678345 -2.0604248 -1.1300201 -3.0113525 -1.7497101c-0.95098877 -0.6196976 -1.9812012 -1.2029343 -3.0906372 -1.7497177c-1.109436 -0.5467911 -2.456665 -0.8930893 -4.041565 -1.0388947z" fill-rule="evenodd"/><path fill="#efefef" d="m669.18896 192.53543l0 0c0 -9.254028 7.833252 -16.755905 17.496094 -16.755905l0 0c4.6401978 0 9.090393 1.7653503 12.371582 4.9076996c3.281128 3.142334 5.1244507 7.4042664 5.1244507 11.848206l0 0c0 9.254028 -7.833252 16.755905 -17.496033 16.755905l0 0c-9.662842 0 -17.496094 -7.501877 -17.496094 -16.755905z" fill-rule="evenodd"/><path fill="#028090" d="m690.3291 188.96606q0 -0.65625 -0.28125 -1.125q-0.265625 -0.46875 -0.921875 -0.734375q-0.453125 -0.1875 -1.0625 -0.21875q-0.609375 -0.046875 -1.421875 -0.046875l-1.625 0l0 4.6875l1.390625 0q1.078125 0 1.796875 -0.09375q0.734375 -0.109375 1.21875 -0.484375q0.46875 -0.359375 0.6875 -0.796875q0.21875 -0.453125 0.21875 -1.1875zm7.015625 12.109375l-5.5 0l-4.75 -6.40625l-2.078125 0l0 6.40625l-4.46875 0l0 -17.453125l7.546875 0q1.546875 0 2.65625 0.1875q1.109375 0.171875 2.078125 0.75q0.984375 0.59375 1.5625 1.53125q0.59375 0.921875 0.59375 2.328125q0 1.9375 -0.90625 3.15625q-0.890625 1.21875 -2.5625 2.015625l5.828125 7.484375z" fill-rule="nonzero"/><g filter="url(#shadowFilter-p.1)"><use xlink:href="#p.1" transform="matrix(1.0 0.0 0.0 1.0 3.9993908136482936 -0.06980944881889434)"/></g><defs><filter id="shadowFilter-p.1" filterUnits="userSpaceOnUse"><feGaussianBlur in="SourceAlpha" stdDeviation="2.0" result="blur"/><feComponentTransfer in="blur" color-interpolation-filters="sRGB"><feFuncR type="linear" slope="0" intercept="0.007843138"/><feFuncG type="linear" slope="0" intercept="0.5019608"/><feFuncB type="linear" slope="0" intercept="0.5647059"/><feFuncA type="linear" slope="0.5" intercept="0"/></feComponentTransfer></filter></defs><g id="p.1"><path fill="#f8f9fa" d="m15.818899 109.84252l26.112707 0l12.280994 30.157478l-12.280994 30.157486l-26.112707 0z" fill-rule="evenodd"/></g><path fill="#028090" d="m44.76445 109.874626l14.582676 0l14.582676 30.125984l-14.582676 30.125992l-14.582676 0l14.582676 -30.125992z" fill-rule="evenodd"/><path stroke="#02c39a" stroke-width="1.0" stroke-linejoin="round" stroke-linecap="butt" d="m44.76445 109.874626l14.582676 0l14.582676 30.125984l-14.582676 30.125992l-14.582676 0l14.582676 -30.125992z" fill-rule="evenodd"/><g filter="url(#shadowFilter-p.2)"><use xlink:href="#p.2" transform="matrix(1.0 0.0 0.0 1.0 7.998781889763777 -0.13961916010499273)"/></g><defs><filter id="shadowFilter-p.2" filterUnits="userSpaceOnUse"><feGaussianBlur in="SourceAlpha" stdDeviation="5.0" result="blur"/><feComponentTransfer in="blur" color-interpolation-filters="sRGB"><feFuncR type="linear" slope="0" intercept="0.007843138"/><feFuncG type="linear" slope="0" intercept="0.5019608"/><feFuncB type="linear" slope="0" intercept="0.5647059"/><feFuncA type="linear" slope="0.37" intercept="0"/></feComponentTransfer></filter></defs><g id="p.2"><path fill="#02c39a" d="m19.024513 109.84252l14.80315 0l14.80315 30.157478l-14.80315 30.157486l-14.80315 0l14.80315 -30.157486z" fill-rule="evenodd"/><path stroke="#028090" stroke-width="1.0" stroke-linejoin="round" stroke-linecap="butt" d="m19.024513 109.84252l14.80315 0l14.80315 30.157478l-14.80315 30.157486l-14.80315 0l14.80315 -30.157486z" fill-rule="evenodd"/></g></g></svg>